<?xml version="1.0" encoding="UTF-8"?>
<svg width="406.04mm" height="264.78mm" version="1.1" viewBox="0 0 406.04 264.78" xmlns="http://www.w3.org/2000/svg" xmlns:ns2="http://www.iki.fi/pav/software/textext/" xmlns:xlink="http://www.w3.org/1999/xlink">
 <defs>
  <marker id="Arrow1Mstart" overflow="visible" orient="auto">
   <path transform="matrix(.4 0 0 .4 4 0)" d="m0 0 5-5-17.5 5 17.5 5z" fill="#00f" fill-rule="evenodd" stroke="#00f" stroke-width="1pt"/>
  </marker>
  <marker id="marker1139" overflow="visible" orient="auto">
   <path transform="matrix(1.1,0,0,1.1,1.1,0)" d="m8.7186 4.0337-10.926-4.0177 10.926-4.0177c-1.7455 2.3721-1.7354 5.6175-6e-7 8.0354z" fill-rule="evenodd" stroke="#000" stroke-linejoin="round" stroke-width=".625"/>
  </marker>
  <marker id="DotM" overflow="visible" orient="auto">
   <path transform="matrix(.4 0 0 .4 2.96 .4)" d="m-2.5-1c0 2.76-2.24 5-5 5s-5-2.24-5-5 2.24-5 5-5 5 2.24 5 5z" fill-rule="evenodd" stroke="#000" stroke-width="1pt"/>
  </marker>
  <marker id="marker4423" overflow="visible" orient="auto">
   <path transform="matrix(1.1,0,0,1.1,1.1,0)" d="m8.7186 4.0337-10.926-4.0177 10.926-4.0177c-1.7455 2.3721-1.7354 5.6175-6e-7 8.0354z" fill-rule="evenodd" stroke="#000" stroke-linejoin="round" stroke-width=".625"/>
  </marker>
  <marker id="marker4319" overflow="visible" orient="auto">
   <path transform="matrix(1.1,0,0,1.1,1.1,0)" d="m8.7186 4.0337-10.926-4.0177 10.926-4.0177c-1.7455 2.3721-1.7354 5.6175-6e-7 8.0354z" fill-rule="evenodd" stroke="#000" stroke-linejoin="round" stroke-width=".625"/>
  </marker>
  <marker id="Arrow1Lend" overflow="visible" orient="auto">
   <path transform="matrix(-.8 0 0 -.8 -10 0)" d="m0 0 5-5-17.5 5 17.5 5z" fill-rule="evenodd" stroke="#000" stroke-width="1pt"/>
  </marker>
  <pattern id="pattern2952" patternTransform="matrix(.54542 -.17957 1.2747 3.8717 70.563 99.792)" xlink:href="#Strips1_1"/>
  <pattern id="Strips1_1" width="2" height="1" patternTransform="translate(0) scale(10)" patternUnits="userSpaceOnUse">
   <rect y="-.5" width="1" height="2"/>
  </pattern>
  <pattern id="pattern2952-9" patternTransform="matrix(.54542 -.17957 1.2747 3.8717 70.563 99.792)" xlink:href="#Strips1_1-3"/>
  <pattern id="Strips1_1-3" width="2" height="1" patternTransform="translate(0) scale(10)" patternUnits="userSpaceOnUse">
   <rect y="-.5" width="1" height="2"/>
  </pattern>
  <marker id="Arrow1Lend-3" overflow="visible" orient="auto">
   <path transform="matrix(-.8 0 0 -.8 -10 0)" d="m0 0 5-5-17.5 5 17.5 5z" fill-rule="evenodd" stroke="#000" stroke-width="1pt"/>
  </marker>
  <marker id="DotM-9" overflow="visible" orient="auto">
   <path transform="matrix(.4 0 0 .4 2.96 .4)" d="m-2.5-1c0 2.76-2.24 5-5 5s-5-2.24-5-5 2.24-5 5-5 5 2.24 5 5z" fill-rule="evenodd" stroke="#000" stroke-width="1pt"/>
  </marker>
  <marker id="DotM-6" overflow="visible" orient="auto">
   <path transform="matrix(.4 0 0 .4 2.96 .4)" d="m-2.5-1c0 2.76-2.24 5-5 5s-5-2.24-5-5 2.24-5 5-5 5 2.24 5 5z" fill-rule="evenodd" stroke="#000" stroke-width="1pt"/>
  </marker>
  <marker id="DotM-8" overflow="visible" orient="auto">
   <path transform="matrix(.4 0 0 .4 2.96 .4)" d="m-2.5-1c0 2.76-2.24 5-5 5s-5-2.24-5-5 2.24-5 5-5 5 2.24 5 5z" fill-rule="evenodd" stroke="#000" stroke-width="1pt"/>
  </marker>
  <marker id="arrowVoltageStart" overflow="visible" orient="auto">
   <path transform="matrix(.25 0 0 .25 1.8231 0)" d="m0 0 5-5-17.5 5 17.5 5z" fill="#217b21" fill-rule="evenodd" stroke="#217b21"/>
  </marker>
 </defs>
 <g transform="translate(7.3865 56.619)" display="none">
  <rect x="-2.955" y="71.972" width="129.77" height="129.68" ry="8.1265" fill="#ccc" stop-color="#000000" stroke="#000" stroke-width=".27252"/>
  <g id="g869">
   <circle cx="4.2522" cy="79.092" r="5.1027" fill="#999" stop-color="#000000" stroke="#000" stroke-width=".27252"/>
   <circle cx="4.2522" cy="79.092" r="2.6458" fill="#ccc" stop-color="#000000" stroke="#000" stroke-width=".27252"/>
  </g>
  <use transform="translate(115.09)" width="100%" height="100%" xlink:href="#g869"/>
  <use transform="translate(0 115.38)" width="100%" height="100%" xlink:href="#g869"/>
  <use transform="translate(115.09 115.38)" width="100%" height="100%" xlink:href="#g869"/>
 </g>
 <g transform="rotate(-15 280.6 137.03)">
  <rect x="18.843" y="102.23" width="86.061" height="69.089" ry="6.6817" fill="#b3b3b3" stop-color="#000000" stroke="#000" stroke-width=".27252"/>
  <g id="g892">
   <circle cx="25.608" cy="109.24" r="5.6696" fill="#b3b3b3" stop-color="#000000" stroke="#000" stroke-width=".27252"/>
   <path d="m27.403 108.2-0.23946 1.0376 0.24194 1.037-1.0183 0.3114-0.77709 0.72803-0.77883-0.72616-1.019-0.30897 0.23946-1.0376-0.24194-1.037 1.0183-0.31141 0.77709-0.72803 0.77883 0.72617z" fill="#808080" stop-color="#000000" stroke="#000" stroke-width=".27252"/>
  </g>
  <use transform="translate(0 55.124)" width="100%" height="100%" xlink:href="#g892"/>
  <use transform="translate(72.23)" width="100%" height="100%" xlink:href="#g892"/>
  <use transform="translate(72.23 55.124)" width="100%" height="100%" xlink:href="#g892"/>
  <path d="m57.997 124.41 14.371 4.8095-0.13336 15.153-14.453 4.5558-8.799-12.338z" fill="#0ff" stop-color="#000000" stroke="#000" stroke-width=".27252"/>
 </g>
 <g transform="rotate(-30 171.02 151.11)" stroke="#000" stroke-width=".27252">
  <rect x="57.129" y="132.28" width="309.83" height="8.5756" ry="4.221" fill="#808080" stop-color="#000000"/>
  <circle cx="61.672" cy="136.71" r="2.8731" fill="#ff0" stop-color="#000000"/>
  <rect x="60.188" y="140.85" width="3.3731" height="2.4511" ry=".53454" fill="#808080" stop-color="#000000"/>
 </g>
 <g transform="translate(7.3865 56.619)">
  <g transform="matrix(1.1634 -.13824 .11799 .99301 -26.695 13.754)">
   <rect x="77.241" y="99.959" width="45.703" height="4.8777" fill="#808080" stop-color="#000000" stroke="#000" stroke-linejoin="round" stroke-width=".24444"/>
   <rect x="77.241" y="99.723" width="45.703" height="5.3501" fill="url(#pattern2952)" stop-color="#000000"/>
  </g>
  <g transform="matrix(-.84131 1.2879 -.83741 -.54658 278.49 55.19)">
   <rect x="77.241" y="99.959" width="45.703" height="4.8777" fill="#808080" stop-color="#000000" stroke="#000" stroke-linejoin="round" stroke-width=".24444"/>
   <rect x="77.241" y="99.723" width="45.703" height="5.3501" fill="url(#pattern2952-9)" stop-color="#000000"/>
  </g>
  <use transform="rotate(-30 89.755 4.13)" width="100%" height="100%" xlink:href="#g920"/>
  <use transform="translate(12.851 52.979)" width="100%" height="100%" fill="none" xlink:href="#g920"/>
  <g id="g920" transform="translate(-6.6146 -4.5357)">
   <circle cx="82.319" cy="109.31" r="3.6081" fill="#ff0" stop-color="#000000" stroke="#000" stroke-width=".27252"/>
  </g>
  <g fill="none">
   <g>
    <path d="m61.873 136.78h322.19" marker-end="url(#Arrow1Lend)" stroke="#000" stroke-width=".52917"/>
    <path d="m61.928 136.81-0.07241-0.10053v-192.3" marker-end="url(#Arrow1Lend-3)" stroke="#000" stroke-width=".52917"/>
    <path d="m61.928 136.81 336.55-90.179" stroke="#a463e0" stroke-width="1.3229"/>
    <path d="m61.928 136.81 325.6-187.99" stroke="#007bff" stroke-width="1.3229"/>
   </g>
   <path d="m238.97 34.596a204.43 204.43 0 0 1 20.423 49.305" marker-start="url(#marker4319)" stop-color="#000000" stroke="#000" stroke-linejoin="round" stroke-width=".52917"/>
   <path d="m260.03 22.206a228.97 228.97 0 0 1 30.677 114.49" marker-start="url(#marker4423)" stop-color="#000000" stroke="#000" stroke-linejoin="round" stroke-width=".52917"/>
  </g>
  <g transform="matrix(1.7639 0 0 1.7639 234.89 61.974)" ns2:alignment="middle center" ns2:inkscapeversion="1.0.1" ns2:jacobian_sqrt="1.76389" ns2:pdfconverter="inkscape" ns2:preamble="C:\\Users\\Michael Zauner\\AppData\\Roaming\\inkscape\\extensions\\inkscapeMadeEasy\\basicLatexPackages.tex" ns2:scale="5.0" ns2:texconverter="pdflatex" ns2:text="$\\alpha$\n\n\n\n" ns2:version="1.1.0">
   <g id="id-726a2dc9-f53c-4c67-8a43-91151bcbaecf" transform="translate(-149.12 -130.36)">
    <g id="id-517dd896-5f77-4d0f-8406-c7be9c1951cc">
     <g transform="translate(148.71 134.76)">
      <path d="m4.75-2.3594c0-1.5625-0.92188-2.0469-1.6562-2.0469-1.375 0-2.6875 1.4219-2.6875 2.8281 0 0.9375 0.59375 1.6875 1.625 1.6875 0.625 0 1.3438-0.23438 2.0938-0.84375 0.125 0.53125 0.45312 0.84375 0.90625 0.84375 0.53125 0 0.84375-0.54688 0.84375-0.70312 0-0.078125-0.0625-0.10938-0.125-0.10938s-0.09375 0.03125-0.125 0.10938c-0.1875 0.48438-0.54688 0.48438-0.5625 0.48438-0.3125 0-0.3125-0.78125-0.3125-1.0156 0-0.20312 0-0.23438 0.10938-0.34375 0.9375-1.1875 1.1406-2.3438 1.1406-2.3438 0-0.03125-0.015625-0.10938-0.125-0.10938-0.09375 0-0.09375 0.03125-0.14062 0.21875-0.1875 0.625-0.51562 1.375-0.98438 1.9688zm-0.65625 1.375c-0.89062 0.76562-1.6562 0.875-2.0469 0.875-0.59375 0-0.90625-0.45312-0.90625-1.0938 0-0.48438 0.26562-1.5625 0.57812-2.0625 0.46875-0.73438 1.0156-0.92188 1.3594-0.92188 0.98438 0 0.98438 1.3125 0.98438 2.0781 0 0.375 0 0.95312 0.03125 1.125z"/>
     </g>
    </g>
   </g>
  </g>
  <g transform="matrix(1.7639 0 0 1.7639 290.59 79.243)" ns2:alignment="middle center" ns2:inkscapeversion="1.0.1" ns2:jacobian_sqrt="1.76389" ns2:pdfconverter="inkscape" ns2:preamble="C:\\Users\\Michael Zauner\\AppData\\Roaming\\inkscape\\extensions\\inkscapeMadeEasy\\basicLatexPackages.tex" ns2:scale="5.0" ns2:texconverter="pdflatex" ns2:text="$\\varphi_A$\n\n\n\n\n" ns2:version="1.1.0">
   <g id="id-71a1f5c1-9b66-41e8-b8aa-979d68acf22b" transform="translate(-149.21 -130.36)">
    <g transform="translate(148.71 134.76)">
     <path d="m1.6875 1.6875c-0.03125 0.14062-0.046875 0.15625-0.046875 0.20312 0 0.21875 0.1875 0.28125 0.29688 0.28125 0.046875 0 0.26562-0.03125 0.35938-0.26562 0.03125-0.078125 0.078125-0.40625 0.35938-1.8125 0.078125 0 0.15625 0.015625 0.32812 0.015625 1.6562 0 3.1875-1.5625 3.1875-3.1406 0-0.78125-0.39062-1.375-1.1406-1.375-1.4375 0-2.0469 1.9375-2.6406 3.875-1.0781-0.20312-1.6406-0.75-1.6406-1.4688 0-0.28125 0.23438-1.375 0.82812-2.0625 0.09375-0.09375 0.09375-0.10938 0.09375-0.14062s-0.03125-0.09375-0.125-0.09375c-0.28125 0-1.0469 1.4531-1.0469 2.4062 0 0.9375 0.65625 1.6562 1.7188 1.9062zm1.3906-2.1562c-0.09375 0-0.10938 0-0.1875-0.015625-0.125 0-0.125 0-0.125-0.03125 0-0.015625 0.17188-0.9375 0.1875-1.0781 0.3125-1.2812 1.0938-2.2344 1.9844-2.2344 0.6875 0 0.95312 0.53125 0.95312 1.0156 0 1.125-1.2812 2.3438-2.8125 2.3438z"/>
    </g>
    <g id="id-acf79ca5-b28e-41a4-bd46-fbb80e3815db">
     <g transform="translate(155.23 136.26)">
      <path id="id-56e6d531-fddb-413f-a434-cce24287f68e" d="m1.4375-0.84375c-0.25 0.39062-0.46875 0.5625-0.875 0.59375-0.078125 0-0.17188 0-0.17188 0.14062 0 0.078125 0.0625 0.10938 0.10938 0.10938 0.17188 0 0.40625-0.03125 0.59375-0.03125 0.21875 0 0.51562 0.03125 0.71875 0.03125 0.03125 0 0.14062 0 0.14062-0.15625 0-0.09375-0.09375-0.09375-0.125-0.09375-0.046875-0.015625-0.29688-0.015625-0.29688-0.20312 0-0.09375 0.0625-0.20312 0.09375-0.26562l0.5625-0.875h2l0.15625 1.1562c-0.015625 0.078125-0.0625 0.1875-0.46875 0.1875-0.09375 0-0.1875 0-0.1875 0.15625 0 0.03125 0.015625 0.09375 0.10938 0.09375 0.20312 0 0.70312-0.03125 0.90625-0.03125 0.125 0 0.28125 0.015625 0.40625 0.015625s0.26562 0.015625 0.39062 0.015625c0.09375 0 0.14062-0.0625 0.14062-0.14062 0-0.10938-0.078125-0.10938-0.1875-0.10938-0.40625 0-0.42188-0.0625-0.4375-0.21875l-0.625-4.3125c-0.015625-0.14062-0.03125-0.1875-0.15625-0.1875-0.14062 0-0.17188 0.0625-0.23438 0.15625zm0.92188-1 1.4531-2.2812 0.32812 2.2812z"/>
     </g>
    </g>
   </g>
  </g>
  <g transform="matrix(1.7639 0 0 1.7639 217.74 107.77)" ns2:alignment="middle center" ns2:inkscapeversion="1.0.1" ns2:jacobian_sqrt="1.76389" ns2:pdfconverter="inkscape" ns2:preamble="C:\\Users\\Michael Zauner\\AppData\\Roaming\\inkscape\\extensions\\inkscapeMadeEasy\\basicLatexPackages.tex" ns2:scale="5.0" ns2:texconverter="pdflatex" ns2:text="$\\varphi_M$\n\n\n\n" ns2:version="1.1.0">
   <g transform="translate(-149.21 -130.36)">
    <g>
     <g transform="translate(148.71 134.76)">
      <path d="m1.6875 1.6875c-0.03125 0.14062-0.046875 0.15625-0.046875 0.20312 0 0.21875 0.1875 0.28125 0.29688 0.28125 0.046875 0 0.26562-0.03125 0.35938-0.26562 0.03125-0.078125 0.078125-0.40625 0.35938-1.8125 0.078125 0 0.15625 0.015625 0.32812 0.015625 1.6562 0 3.1875-1.5625 3.1875-3.1406 0-0.78125-0.39062-1.375-1.1406-1.375-1.4375 0-2.0469 1.9375-2.6406 3.875-1.0781-0.20312-1.6406-0.75-1.6406-1.4688 0-0.28125 0.23438-1.375 0.82812-2.0625 0.09375-0.09375 0.09375-0.10938 0.09375-0.14062s-0.03125-0.09375-0.125-0.09375c-0.28125 0-1.0469 1.4531-1.0469 2.4062 0 0.9375 0.65625 1.6562 1.7188 1.9062zm1.3906-2.1562c-0.09375 0-0.10938 0-0.1875-0.015625-0.125 0-0.125 0-0.125-0.03125 0-0.015625 0.17188-0.9375 0.1875-1.0781 0.3125-1.2812 1.0938-2.2344 1.9844-2.2344 0.6875 0 0.95312 0.53125 0.95312 1.0156 0 1.125-1.2812 2.3438-2.8125 2.3438z"/>
     </g>
     <g transform="translate(155.23 136.26)">
      <path d="m7.1094-4.1875c0.0625-0.26562 0.078125-0.32812 0.59375-0.32812 0.15625 0 0.23438 0 0.23438-0.14062 0-0.10938-0.078125-0.10938-0.20312-0.10938h-0.95312c-0.20312 0-0.20312 0.015625-0.29688 0.14062l-2.6875 3.9844-0.6875-3.9375c-0.03125-0.17188-0.03125-0.1875-0.25-0.1875h-0.98438c-0.14062 0-0.23438 0-0.23438 0.15625 0 0.09375 0.078125 0.09375 0.23438 0.09375 0.10938 0 0.14062 0 0.26562 0.015625 0.14062 0.015625 0.15625 0.03125 0.15625 0.10938 0 0 0 0.046875-0.03125 0.14062l-0.875 3.5c-0.0625 0.23438-0.17188 0.48438-0.73438 0.5-0.046875 0-0.14062 0-0.14062 0.15625 0 0 0 0.09375 0.10938 0.09375 0.20312 0 0.5-0.03125 0.71875-0.03125 0.17188 0 0.57812 0.03125 0.73438 0.03125 0.046875 0 0.14062 0 0.14062-0.15625 0-0.09375-0.09375-0.09375-0.15625-0.09375-0.4375-0.015625-0.4375-0.20312-0.4375-0.29688 0-0.03125 0-0.0625 0.03125-0.17188l0.92188-3.7031 0.75 4.2344c0.03125 0.125 0.03125 0.1875 0.14062 0.1875 0.09375 0 0.15625-0.078125 0.20312-0.15625l2.9219-4.3438 0.015625 0.015625-0.98438 3.9375c-0.0625 0.23438-0.078125 0.29688-0.60938 0.29688-0.125 0-0.21875 0-0.21875 0.15625 0 0 0 0.09375 0.10938 0.09375 0.14062 0 0.29688-0.015625 0.4375-0.015625s0.29688-0.015625 0.4375-0.015625c0.20312 0 0.6875 0.03125 0.89062 0.03125 0.03125 0 0.14062 0 0.14062-0.15625 0-0.09375-0.078125-0.09375-0.21875-0.09375-0.015625 0-0.14062 0-0.26562-0.015625-0.15625-0.015625-0.15625-0.03125-0.15625-0.10938 0-0.03125 0.015625-0.10938 0.015625-0.14062z"/>
     </g>
    </g>
   </g>
  </g>
  <g transform="matrix(1.7639 0 0 1.7639 375.88 144.18)" ns2:alignment="middle center" ns2:inkscapeversion="1.0.1" ns2:jacobian_sqrt="1.76389" ns2:pdfconverter="inkscape" ns2:preamble="C:\\Users\\Michael Zauner\\AppData\\Roaming\\inkscape\\extensions\\inkscapeMadeEasy\\basicLatexPackages.tex" ns2:scale="5.0" ns2:texconverter="pdflatex" ns2:text="$x$\n\n\n\n\n" ns2:version="1.1.0">
   <g transform="translate(-149.01 -130.36)">
    <g id="id-a5f32149-adf7-4e92-8d75-5cd65bacc37e">
     <g transform="translate(148.71 134.76)">
      <path d="m3.3281-3.0156c0.0625-0.25 0.29688-1.1719 0.98438-1.1719 0.046875 0 0.29688 0 0.5 0.125-0.28125 0.0625-0.46875 0.29688-0.46875 0.54688 0 0.15625 0.10938 0.34375 0.375 0.34375 0.21875 0 0.53125-0.17188 0.53125-0.57812 0-0.51562-0.57812-0.65625-0.92188-0.65625-0.57812 0-0.92188 0.53125-1.0469 0.75-0.25-0.65625-0.78125-0.75-1.0781-0.75-1.0312 0-1.6094 1.2812-1.6094 1.5312 0 0.10938 0.10938 0.10938 0.125 0.10938 0.078125 0 0.10938-0.03125 0.125-0.10938 0.34375-1.0625 1-1.3125 1.3438-1.3125 0.1875 0 0.53125 0.09375 0.53125 0.67188 0 0.3125-0.17188 0.96875-0.53125 2.375-0.15625 0.60938-0.51562 1.0312-0.95312 1.0312-0.0625 0-0.28125 0-0.5-0.125 0.25-0.0625 0.46875-0.26562 0.46875-0.54688 0-0.26562-0.21875-0.34375-0.35938-0.34375-0.3125 0-0.54688 0.25-0.54688 0.57812 0 0.45312 0.48438 0.65625 0.92188 0.65625 0.67188 0 1.0312-0.70312 1.0469-0.75 0.125 0.35938 0.48438 0.75 1.0781 0.75 1.0312 0 1.5938-1.2812 1.5938-1.5312 0-0.10938-0.078125-0.10938-0.10938-0.10938-0.09375 0-0.10938 0.046875-0.14062 0.10938-0.32812 1.0781-1 1.3125-1.3125 1.3125-0.39062 0-0.54688-0.3125-0.54688-0.65625 0-0.21875 0.046875-0.4375 0.15625-0.875z"/>
     </g>
    </g>
   </g>
  </g>
  <g transform="matrix(1.7639 0 0 1.7639 44.708 -55.206)" ns2:alignment="middle center" ns2:inkscapeversion="1.0.1" ns2:jacobian_sqrt="1.76389" ns2:pdfconverter="inkscape" ns2:preamble="C:\\Users\\Michael Zauner\\AppData\\Roaming\\inkscape\\extensions\\inkscapeMadeEasy\\basicLatexPackages.tex" ns2:scale="5.0" ns2:texconverter="pdflatex" ns2:text="$y$\n\n\n\n\n\n" ns2:version="1.1.0">
   <g id="id-73690f02-d6a8-4f18-94cc-971d2e2d81da" transform="translate(-149.01 -130.36)">
    <g>
     <g transform="translate(148.71 134.76)">
      <path id="id-20807938-4917-4782-8b76-361fc258dc5b" d="m4.8438-3.7969c0.046875-0.14062 0.046875-0.15625 0.046875-0.23438 0-0.17188-0.14062-0.26562-0.29688-0.26562-0.09375 0-0.25 0.0625-0.34375 0.20312-0.015625 0.0625-0.10938 0.35938-0.14062 0.54688-0.078125 0.25-0.14062 0.53125-0.20312 0.79688l-0.45312 1.7969c-0.03125 0.14062-0.46875 0.84375-1.125 0.84375-0.5 0-0.60938-0.4375-0.60938-0.8125 0-0.45312 0.17188-1.0781 0.5-1.9531 0.15625-0.40625 0.20312-0.51562 0.20312-0.71875 0-0.4375-0.3125-0.8125-0.8125-0.8125-0.95312 0-1.3125 1.4531-1.3125 1.5312 0 0.10938 0.09375 0.10938 0.10938 0.10938 0.10938 0 0.10938-0.03125 0.15625-0.1875 0.28125-0.9375 0.67188-1.2344 1.0156-1.2344 0.078125 0 0.25 0 0.25 0.3125 0 0.25-0.10938 0.51562-0.17188 0.70312-0.40625 1.0625-0.57812 1.625-0.57812 2.0938 0 0.89062 0.625 1.1875 1.2188 1.1875 0.39062 0 0.71875-0.17188 1-0.45312-0.125 0.51562-0.25 1.0156-0.64062 1.5469-0.26562 0.32812-0.64062 0.625-1.0938 0.625-0.14062 0-0.59375-0.03125-0.76562-0.42188 0.15625 0 0.29688 0 0.42188-0.125 0.10938-0.078125 0.20312-0.21875 0.20312-0.40625 0-0.3125-0.26562-0.34375-0.35938-0.34375-0.23438 0-0.5625 0.15625-0.5625 0.64062 0 0.5 0.4375 0.875 1.0625 0.875 1.0156 0 2.0469-0.90625 2.3281-2.0312z"/>
     </g>
    </g>
   </g>
  </g>
  <path d="m242.49 88.311a187 187 0 0 1 6.372 48.4" fill="none" marker-start="url(#marker1139)" stop-color="#000000" stroke="#000" stroke-linejoin="round" stroke-width=".52917"/>
 </g>
 <g transform="translate(10.304 69.661)" display="none">
  <g id="g7887" transform="translate(-1.3363 -6.5481)">
   <path d="m-4.5357 172.55h-25.324" fill="none" stroke="#000" stroke-width="1.3229"/>
   <circle cx="-29.86" cy="172.55" r="2.1618" fill="#fff" stop-color="#000000" stroke="#000" stroke-linejoin="round" stroke-width=".79375"/>
  </g>
  <use transform="translate(-3.9532e-8 -32.128)" width="100%" height="100%" xlink:href="#g7887"/>
  <g transform="matrix(0 1.2352 -1.2352 0 154.09 -97.502)">
   <path d="m210 150a30 30 0 0 1-20 0" fill="none" marker-start="url(#arrowVoltageStart)" stroke="#217b21" stroke-linecap="round" stroke-linejoin="round"/>
   <g transform="matrix(0 -.553 .553 0 -109.68 381.78)">
    <g transform="matrix(2.5489 0 0 2.5489 380.65 548.87)" ns2:alignment="middle center" ns2:inkscapeversion="1.0.1" ns2:jacobian_sqrt="1.33333" ns2:pdfconverter="inkscape" ns2:preamble="C:\Users\Bio\AppData\Roaming\inkscape\extensions\circuitSymbols/circuitSymbolsPreamble.tex" ns2:scale="1.0" ns2:stroke-to-path="0" ns2:texconverter="pdflatex" ns2:text=" $V_M$" ns2:version="1.5.0">
     <defs id="id-042e89cb-09ba-4fe4-9aed-c3a8a0d499ea"></defs>
     <g transform="translate(-149.28 -127.95)">
      <g fill="#217b21">
       <g transform="translate(148.71 134.76)">
        <path id="id-4c85ff5b-4d9a-4661-b682-f224eef6a54c" d="m6.2656-5.6719c0.48438-0.78125 0.90625-0.8125 1.2656-0.82812 0.125-0.015625 0.14062-0.17188 0.14062-0.1875 0-0.078125-0.0625-0.125-0.14062-0.125-0.25 0-0.54688 0.03125-0.8125 0.03125-0.32812 0-0.67188-0.03125-0.98438-0.03125-0.0625 0-0.1875 0-0.1875 0.1875 0 0.10938 0.078125 0.125 0.15625 0.125 0.26562 0.015625 0.45312 0.125 0.45312 0.32812 0 0.15625-0.14062 0.375-0.14062 0.375l-3.0625 4.875-0.6875-5.2812c0-0.17188 0.23438-0.29688 0.6875-0.29688 0.14062 0 0.25 0 0.25-0.20312 0-0.078125-0.078125-0.10938-0.125-0.10938-0.40625 0-0.82812 0.03125-1.25 0.03125h-0.54688c-0.17188 0-0.35938-0.03125-0.53125-0.03125-0.078125 0-0.1875 0-0.1875 0.1875 0 0.125 0.078125 0.125 0.25 0.125 0.54688 0 0.5625 0.09375 0.59375 0.34375l0.78125 6.1406c0.03125 0.20312 0.078125 0.23438 0.20312 0.23438 0.15625 0 0.20312-0.046875 0.28125-0.17188z"/>
       </g>
       <g transform="translate(154.52 136.26)">
        <path d="m7.1094-4.1875c0.0625-0.26562 0.078125-0.32812 0.59375-0.32812 0.15625 0 0.23438 0 0.23438-0.14062 0-0.10938-0.078125-0.10938-0.20312-0.10938h-0.95312c-0.20312 0-0.20312 0.015625-0.29688 0.14062l-2.6875 3.9844-0.6875-3.9375c-0.03125-0.17188-0.03125-0.1875-0.25-0.1875h-0.98438c-0.14062 0-0.23438 0-0.23438 0.15625 0 0.09375 0.078125 0.09375 0.23438 0.09375 0.10938 0 0.14062 0 0.26562 0.015625 0.14062 0.015625 0.15625 0.03125 0.15625 0.10938 0 0 0 0.046875-0.03125 0.14062l-0.875 3.5c-0.0625 0.23438-0.17188 0.48438-0.73438 0.5-0.046875 0-0.14062 0-0.14062 0.15625 0 0 0 0.09375 0.10938 0.09375 0.20312 0 0.5-0.03125 0.71875-0.03125 0.17188 0 0.57812 0.03125 0.73438 0.03125 0.046875 0 0.14062 0 0.14062-0.15625 0-0.09375-0.09375-0.09375-0.15625-0.09375-0.4375-0.015625-0.4375-0.20312-0.4375-0.29688 0-0.03125 0-0.0625 0.03125-0.17188l0.92188-3.7031 0.75 4.2344c0.03125 0.125 0.03125 0.1875 0.14062 0.1875 0.09375 0 0.15625-0.078125 0.20312-0.15625l2.9219-4.3438 0.015625 0.015625-0.98438 3.9375c-0.0625 0.23438-0.078125 0.29688-0.60938 0.29688-0.125 0-0.21875 0-0.21875 0.15625 0 0 0 0.09375 0.10938 0.09375 0.14062 0 0.29688-0.015625 0.4375-0.015625s0.29688-0.015625 0.4375-0.015625c0.20312 0 0.6875 0.03125 0.89062 0.03125 0.03125 0 0.14062 0 0.14062-0.15625 0-0.09375-0.078125-0.09375-0.21875-0.09375-0.015625 0-0.14062 0-0.26562-0.015625-0.15625-0.015625-0.15625-0.03125-0.15625-0.10938 0-0.03125 0.015625-0.10938 0.015625-0.14062z"/>
       </g>
      </g>
     </g>
    </g>
   </g>
  </g>
 </g>
 <g transform="translate(7.3865 56.619)">
  <g fill="none" stroke="#000" stroke-width=".79375">
   <path d="m35.341 39.542 7.8828 78.377" marker-end="url(#DotM)"/>
   <path d="m75.343 39.542-11.884 89.191" marker-end="url(#DotM-9)"/>
   <path d="m115.35 39.542-13.509 62.057" marker-end="url(#DotM-6)"/>
   <path d="m155.35 39.542-5.4806 47.101" marker-end="url(#DotM-8)"/>
  </g>
  <g transform="matrix(1.7639 0 0 1.7639 -5.2779 185.67)" fill="#00f" ns2:alignment="middle center" ns2:inkscapeversion="1.0.2-2" ns2:jacobian_sqrt="1.76389" ns2:pdfconverter="inkscape" ns2:preamble="C:\Users\Bio\AppData\Roaming\inkscape\extensions\circuitSymbols\circuitSymbolsPreamble.tex" ns2:scale="5.0" ns2:stroke-to-path="0" ns2:texconverter="pdflatex" ns2:text="$T$" ns2:version="1.5.0">
   <defs></defs>
   <g transform="translate(-148.95 -128.02)" fill="#00f">
    <g id="id-5d154149-f9e9-421c-8e43-4bea955f44fc" fill="#00f">
     <g transform="translate(148.71 134.76)" fill="#00f">
      <path id="id-9c97c798-8eee-4bde-a035-64145af6953d" d="m4.25-6.0469c0.078125-0.28125 0.10938-0.34375 0.23438-0.375 0.09375-0.015625 0.42188-0.015625 0.625-0.015625 1.0156 0 1.4531 0.03125 1.4531 0.8125 0 0.15625-0.03125 0.54688-0.078125 0.79688 0 0.046875-0.03125 0.15625-0.03125 0.1875 0 0.0625 0.03125 0.14062 0.125 0.14062 0.10938 0 0.125-0.078125 0.15625-0.23438l0.26562-1.7344c0.015625-0.046875 0.015625-0.14062 0.015625-0.17188 0-0.10938-0.09375-0.10938-0.26562-0.10938h-5.5312c-0.23438 0-0.25 0.015625-0.32812 0.20312l-0.59375 1.75c0 0.015625-0.0625 0.15625-0.0625 0.1875 0 0.046875 0.0625 0.10938 0.125 0.10938 0.09375 0 0.10938-0.0625 0.17188-0.21875 0.53125-1.5469 0.79688-1.7188 2.2656-1.7188h0.39062c0.28125 0 0.28125 0.03125 0.28125 0.125 0 0.046875-0.03125 0.17188-0.046875 0.20312l-1.3281 5.3281c-0.09375 0.35938-0.125 0.46875-1.1875 0.46875-0.35938 0-0.42188 0-0.42188 0.1875 0 0.125 0.10938 0.125 0.17188 0.125 0.26562 0 0.54688-0.015625 0.8125-0.015625 0.28125 0 0.57812-0.015625 0.85938-0.015625s0.54688 0.015625 0.82812 0.015625 0.57812 0.015625 0.85938 0.015625c0.09375 0 0.21875 0 0.21875-0.20312 0-0.10938-0.078125-0.10938-0.34375-0.10938-0.23438 0-0.375 0-0.625-0.015625-0.29688-0.03125-0.375-0.0625-0.375-0.21875 0-0.015625 0-0.0625 0.046875-0.20312z" fill="#00f"/>
     </g>
    </g>
   </g>
  </g>
  <g transform="matrix(1.7639 0 0 1.7639 24.452 21.401)" ns2:alignment="middle center" ns2:inkscapeversion="1.0.2-2" ns2:jacobian_sqrt="1.76389" ns2:pdfconverter="inkscape" ns2:preamble="C:\Users\Bio\AppData\Roaming\inkscape\extensions\circuitSymbols\circuitSymbolsPreamble.tex" ns2:scale="5.0" ns2:stroke-to-path="0" ns2:texconverter="pdflatex" ns2:text="$J_{eq}$" ns2:version="1.5.0">
   <defs id="id-1e249b22-139e-4608-a7b5-c94d6806321c"></defs>
   <g transform="translate(-149.42 -127.95)">
    <g>
     <g transform="translate(148.71 134.76)">
      <path d="m5.3906-6.0781c0.078125-0.32812 0.10938-0.42188 0.65625-0.42188 0.15625 0 0.26562 0 0.26562-0.1875 0-0.09375-0.0625-0.125-0.14062-0.125-0.25 0-0.85938 0.03125-1.1094 0.03125-0.32812 0-1.1406-0.03125-1.4688-0.03125-0.078125 0-0.20312 0-0.20312 0.20312 0 0.10938 0.078125 0.10938 0.34375 0.10938 0.21875 0 0.32812 0 0.57812 0.015625 0.23438 0.03125 0.29688 0.0625 0.29688 0.20312 0 0.0625-0.015625 0.125-0.03125 0.20312l-1.1562 4.5781c-0.23438 0.96875-0.90625 1.5-1.4219 1.5-0.26562 0-0.79688-0.09375-0.95312-0.625 0.03125 0.015625 0.09375 0.015625 0.125 0.015625 0.39062 0 0.64062-0.34375 0.64062-0.64062 0-0.3125-0.26562-0.42188-0.4375-0.42188s-0.67188 0.125-0.67188 0.79688c0 0.625 0.53125 1.0938 1.3281 1.0938 0.90625 0 1.9531-0.65625 2.2031-1.6406z"/>
     </g>
     <g transform="translate(154.24 136.26)">
      <path id="id-e90bd850-5c26-4841-b83b-a0f28bb48d5d" d="m1.5625-1.5938c0.1875 0 0.75-0.015625 1.125-0.14062 0.51562-0.1875 0.60938-0.51562 0.60938-0.71875 0-0.39062-0.39062-0.625-0.85938-0.625-0.84375 0-1.9688 0.64062-1.9688 1.8438 0 0.70312 0.4375 1.2969 1.25 1.2969 1.1875 0 1.7344-0.6875 1.7344-0.78125 0-0.046875-0.0625-0.125-0.125-0.125-0.03125 0-0.046875 0.015625-0.10938 0.078125-0.54688 0.64062-1.3594 0.64062-1.4844 0.64062-0.42188 0-0.70312-0.28125-0.70312-0.84375 0-0.09375 0-0.23438 0.09375-0.625zm-0.39062-0.1875c0.29688-1.0156 1.0625-1.0938 1.2656-1.0938 0.29688 0 0.5625 0.15625 0.5625 0.42188 0 0.67188-1.1875 0.67188-1.4844 0.67188z"/>
     </g>
     <g transform="translate(158.02 136.26)">
      <path d="m3.5469-2.875c0-0.03125 0.015625-0.0625 0.015625-0.09375 0-0.046875-0.03125-0.10938-0.09375-0.10938s-0.35938 0.23438-0.5 0.46875c-0.0625-0.14062-0.29688-0.46875-0.75-0.46875-0.89062 0-1.7969 0.98438-1.7969 1.9844 0 0.6875 0.45312 1.1562 1.0625 1.1562 0.39062 0 0.71875-0.25 0.875-0.375-0.015625 0.015625-0.23438 0.89062-0.25 1.0156-0.10938 0.39062-0.10938 0.39062-0.54688 0.39062-0.078125 0-0.17188 0-0.17188 0.15625 0 0.046875 0.03125 0.10938 0.09375 0.10938 0.23438 0 0.5-0.03125 0.73438-0.03125s0.53125 0.03125 0.75 0.03125c0.0625 0 0.125-0.03125 0.125-0.15625 0-0.10938-0.09375-0.10938-0.17188-0.10938-0.15625 0-0.34375 0-0.34375-0.078125 0-0.015625 0-0.03125 0.03125-0.15625zm-1.0469 2c-0.046875 0.10938-0.046875 0.125-0.125 0.23438-0.28125 0.32812-0.60938 0.51562-0.875 0.51562s-0.51562-0.1875-0.51562-0.67188c0-0.375 0.20312-1.1406 0.375-1.4219 0.3125-0.5625 0.67188-0.65625 0.85938-0.65625 0.48438 0 0.625 0.53125 0.625 0.60938 0 0.03125-0.015625 0.078125-0.015625 0.09375z"/>
     </g>
    </g>
   </g>
  </g>
  <g stroke-width="0">
   <g transform="matrix(1.7639 0 0 1.7639 146.2 22.6)" ns2:alignment="middle center" ns2:inkscapeversion="1.0.2-2" ns2:jacobian_sqrt="1.76389" ns2:pdfconverter="inkscape" ns2:preamble="C:\Users\Bio\AppData\Roaming\inkscape\extensions\circuitSymbols\circuitSymbolsPreamble.tex" ns2:scale="5.0" ns2:stroke-to-path="0" ns2:texconverter="pdflatex" ns2:text="$J_{A}$" ns2:version="1.5.0">
    <defs></defs>
    <g id="id-f2a20ff3-f202-4043-9bc8-22a779972f8e" transform="translate(-149.42 -127.95)" stroke-width="0">
     <g id="id-46ebe32d-9187-49a8-9495-b686c24444bc">
      <g transform="translate(148.71 134.76)" stroke-width="0">
       <path d="m5.3906-6.0781c0.078125-0.32812 0.10938-0.42188 0.65625-0.42188 0.15625 0 0.26562 0 0.26562-0.1875 0-0.09375-0.0625-0.125-0.14062-0.125-0.25 0-0.85938 0.03125-1.1094 0.03125-0.32812 0-1.1406-0.03125-1.4688-0.03125-0.078125 0-0.20312 0-0.20312 0.20312 0 0.10938 0.078125 0.10938 0.34375 0.10938 0.21875 0 0.32812 0 0.57812 0.015625 0.23438 0.03125 0.29688 0.0625 0.29688 0.20312 0 0.0625-0.015625 0.125-0.03125 0.20312l-1.1562 4.5781c-0.23438 0.96875-0.90625 1.5-1.4219 1.5-0.26562 0-0.79688-0.09375-0.95312-0.625 0.03125 0.015625 0.09375 0.015625 0.125 0.015625 0.39062 0 0.64062-0.34375 0.64062-0.64062 0-0.3125-0.26562-0.42188-0.4375-0.42188s-0.67188 0.125-0.67188 0.79688c0 0.625 0.53125 1.0938 1.3281 1.0938 0.90625 0 1.9531-0.65625 2.2031-1.6406z"/>
      </g>
     </g>
     <g id="id-cbb99137-6ab0-47a8-930c-49ae04c72c1a">
      <g transform="translate(154.24 136.26)" stroke-width="0">
       <path d="m1.4375-0.84375c-0.25 0.39062-0.46875 0.5625-0.875 0.59375-0.078125 0-0.17188 0-0.17188 0.14062 0 0.078125 0.0625 0.10938 0.10938 0.10938 0.17188 0 0.40625-0.03125 0.59375-0.03125 0.21875 0 0.51562 0.03125 0.71875 0.03125 0.03125 0 0.14062 0 0.14062-0.15625 0-0.09375-0.09375-0.09375-0.125-0.09375-0.046875-0.015625-0.29688-0.015625-0.29688-0.20312 0-0.09375 0.0625-0.20312 0.09375-0.26562l0.5625-0.875h2l0.15625 1.1562c-0.015625 0.078125-0.0625 0.1875-0.46875 0.1875-0.09375 0-0.1875 0-0.1875 0.15625 0 0.03125 0.015625 0.09375 0.10938 0.09375 0.20312 0 0.70312-0.03125 0.90625-0.03125 0.125 0 0.28125 0.015625 0.40625 0.015625s0.26562 0.015625 0.39062 0.015625c0.09375 0 0.14062-0.0625 0.14062-0.14062 0-0.10938-0.078125-0.10938-0.1875-0.10938-0.40625 0-0.42188-0.0625-0.4375-0.21875l-0.625-4.3125c-0.015625-0.14062-0.03125-0.1875-0.15625-0.1875-0.14062 0-0.17188 0.0625-0.23438 0.15625zm0.92188-1 1.4531-2.2812 0.32812 2.2812z"/>
      </g>
     </g>
    </g>
   </g>
   <g transform="matrix(1.7639 0 0 1.7639 103.84 22.476)" ns2:alignment="middle center" ns2:inkscapeversion="1.0.2-2" ns2:jacobian_sqrt="1.76389" ns2:pdfconverter="inkscape" ns2:preamble="C:\Users\Bio\AppData\Roaming\inkscape\extensions\circuitSymbols\circuitSymbolsPreamble.tex" ns2:scale="5.0" ns2:stroke-to-path="0" ns2:texconverter="pdflatex" ns2:text="$K_{S}$" ns2:version="1.5.0">
    <defs></defs>
    <g id="id-2ac199f7-f0d8-45b4-a19d-07fd061c62ec" transform="translate(-149.09 -127.95)" stroke-width="0">
     <g id="id-dfd6d255-b4fd-41e9-94d8-3824cd566f0c">
      <g transform="translate(148.71 134.76)" stroke-width="0">
       <path id="id-92c2fbe0-2709-4d72-b3a3-27ee3309e36e" d="m5.0781-4.0312c-0.015625-0.03125-0.046875-0.10938-0.046875-0.14062 0 0 0.17188-0.14062 0.28125-0.21875l1.75-1.3438c0.9375-0.70312 1.3281-0.73438 1.625-0.76562 0.078125-0.015625 0.17188-0.015625 0.17188-0.20312 0-0.03125-0.03125-0.10938-0.10938-0.10938-0.21875 0-0.46875 0.03125-0.70312 0.03125-0.35938 0-0.75-0.03125-1.1094-0.03125-0.0625 0-0.1875 0-0.1875 0.20312 0 0.0625 0.046875 0.09375 0.125 0.10938 0.21875 0.015625 0.29688 0.0625 0.29688 0.20312 0 0.1875-0.29688 0.42188-0.35938 0.46875l-3.875 2.9844 0.79688-3.2031c0.078125-0.35938 0.10938-0.45312 0.82812-0.45312 0.25 0 0.34375 0 0.34375-0.20312 0-0.078125-0.078125-0.10938-0.14062-0.10938-0.28125 0-1 0.03125-1.2812 0.03125s-0.98438-0.03125-1.2812-0.03125c-0.0625 0-0.20312 0-0.20312 0.1875 0 0.125 0.09375 0.125 0.29688 0.125 0.125 0 0.3125 0.015625 0.42188 0.015625 0.15625 0.03125 0.21875 0.046875 0.21875 0.17188 0 0.03125 0 0.0625-0.03125 0.1875l-1.3438 5.3438c-0.09375 0.39062-0.10938 0.46875-0.90625 0.46875-0.17188 0-0.28125 0-0.28125 0.1875 0 0.125 0.125 0.125 0.15625 0.125 0.28125 0 0.98438-0.03125 1.2656-0.03125 0.20312 0 0.42188 0.015625 0.64062 0.015625s0.4375 0.015625 0.64062 0.015625c0.078125 0 0.20312 0 0.20312-0.20312 0-0.10938-0.09375-0.10938-0.28125-0.10938-0.375 0-0.64062 0-0.64062-0.17188 0-0.078125 0.046875-0.29688 0.078125-0.4375 0.14062-0.53125 0.28125-1.0469 0.40625-1.5781l1.4844-1.1562 1.1562 2.6875c0.125 0.26562 0.125 0.29688 0.125 0.34375 0 0.3125-0.4375 0.3125-0.53125 0.3125-0.10938 0-0.21875 0-0.21875 0.20312 0 0.10938 0.125 0.10938 0.14062 0.10938 0.40625 0 0.82812-0.03125 1.2188-0.03125 0.21875 0 0.76562 0.03125 0.98438 0.03125 0.046875 0 0.17188 0 0.17188-0.20312 0-0.10938-0.10938-0.10938-0.20312-0.10938-0.40625 0-0.53125-0.09375-0.6875-0.4375z"/>
      </g>
     </g>
     <g transform="translate(157.17 136.26)" stroke-width="0">
      <path d="m4.9531-4.8125c0-0.03125-0.03125-0.09375-0.09375-0.09375-0.046875 0-0.046875 0.015625-0.14062 0.10938l-0.34375 0.39062c-0.26562-0.375-0.70312-0.5-1.125-0.5-0.98438 0-1.8594 0.79688-1.8594 1.6094 0 0.09375 0.03125 0.375 0.23438 0.64062 0.23438 0.26562 0.5 0.32812 0.96875 0.45312 0.14062 0.03125 0.48438 0.10938 0.59375 0.14062 0.21875 0.046875 0.64062 0.20312 0.64062 0.71875 0 0.5625-0.59375 1.2344-1.375 1.2344-0.625 0-1.3594-0.21875-1.3594-0.98438 0-0.078125 0.015625-0.23438 0.046875-0.35938v-0.03125c0-0.09375-0.078125-0.09375-0.10938-0.09375-0.09375 0-0.10938 0.015625-0.125 0.14062l-0.35938 1.3906c-0.015625 0.03125-0.03125 0.0625-0.03125 0.10938 0 0.03125 0.03125 0.078125 0.10938 0.078125 0.03125 0 0.046875-0.015625 0.14062-0.09375 0.078125-0.09375 0.25-0.3125 0.32812-0.39062 0.375 0.40625 0.90625 0.48438 1.3281 0.48438 1.0625 0 1.9062-0.90625 1.9062-1.7344 0-0.29688-0.125-0.57812-0.28125-0.73438-0.23438-0.25-0.34375-0.28125-1.25-0.5-0.14062-0.03125-0.375-0.078125-0.4375-0.10938-0.17188-0.0625-0.46875-0.23438-0.46875-0.625 0-0.5625 0.625-1.1094 1.3438-1.1094 0.76562 0 1.125 0.42188 1.125 1.0781 0 0.09375-0.03125 0.25-0.03125 0.3125 0 0.10938 0.078125 0.10938 0.125 0.10938 0.09375 0 0.10938-0.046875 0.125-0.15625z"/>
     </g>
    </g>
   </g>
   <g transform="matrix(1.7639 0 0 1.7639 71.843 25.943)" ns2:alignment="middle center" ns2:inkscapeversion="1.0.2-2" ns2:jacobian_sqrt="1.76389" ns2:pdfconverter="inkscape" ns2:preamble="C:\Users\Bio\AppData\Roaming\inkscape\extensions\circuitSymbols\circuitSymbolsPreamble.tex" ns2:scale="5.0" ns2:stroke-to-path="0" ns2:texconverter="pdflatex" ns2:text="$c$" ns2:version="1.5.0">
    <defs></defs>
    <g transform="translate(-149.12 -130.36)" stroke-width="0">
     <g stroke-width="0">
      <g transform="translate(148.71 134.76)" stroke-width="0">
       <path id="id-4322afcd-ba91-415b-af39-c23dc65d214d" d="m3.9531-3.7812c-0.17188 0-0.29688 0-0.4375 0.125-0.17188 0.15625-0.1875 0.32812-0.1875 0.39062 0 0.25 0.1875 0.35938 0.375 0.35938 0.28125 0 0.54688-0.25 0.54688-0.64062 0-0.48438-0.46875-0.85938-1.1719-0.85938-1.3438 0-2.6719 1.4219-2.6719 2.8281 0 0.90625 0.57812 1.6875 1.625 1.6875 1.4219 0 2.25-1.0625 2.25-1.1719 0-0.0625-0.046875-0.14062-0.10938-0.14062s-0.078125 0.03125-0.14062 0.10938c-0.78125 0.98438-1.875 0.98438-1.9844 0.98438-0.625 0-0.90625-0.48438-0.90625-1.0938 0-0.40625 0.20312-1.375 0.54688-1.9844 0.3125-0.57812 0.85938-1 1.4062-1 0.32812 0 0.71875 0.125 0.85938 0.40625z"/>
      </g>
     </g>
    </g>
   </g>
  </g>
  <path d="m61.928 203.05a66.239 66.239 0 0 1-46.838-19.401 66.239 66.239 0 0 1-19.401-46.838" fill="none" marker-start="url(#Arrow1Mstart)" stroke="#00f"/>
 </g>
</svg>
