<?xml version="1.0" encoding="UTF-8"?>
<svg width="133.57mm" height="75.916mm" version="1.1" viewBox="0 0 133.57 75.916" xmlns="http://www.w3.org/2000/svg" xmlns:ns2="http://www.iki.fi/pav/software/textext/" xmlns:xlink="http://www.w3.org/1999/xlink">
 <defs>
  <marker id="marker3320" overflow="visible" orient="auto">
   <path transform="matrix(.2 0 0 .2 1.2 0)" d="m0 0 5-5-17.5 5 17.5 5z" fill="#00f" fill-rule="evenodd" stroke="#00f" stroke-width="1pt"/>
  </marker>
  <marker id="marker2584" overflow="visible" orient="auto">
   <path transform="matrix(.2 0 0 .2 1.2 0)" d="m0 0 5-5-17.5 5 17.5 5z" fill="#00f" fill-rule="evenodd" stroke="#00f" stroke-width="1pt"/>
  </marker>
  <pattern id="pattern4404" patternTransform="matrix(.28863 -.28863 1.6491 1.6491 158.75 145.52)" xlink:href="#Strips1_4"/>
  <pattern id="Strips1_4" width="5" height="1" patternTransform="translate(0) scale(10)" patternUnits="userSpaceOnUse">
   <rect y="-.5" width="1" height="2"/>
  </pattern>
  <marker id="arrowCurrentEnd" overflow="visible" orient="auto">
   <path transform="matrix(-.25 0 0 -.25 -1.8231 0)" d="m0 0 5-5-17.5 5 17.5 5z" fill="#f00" fill-rule="evenodd" stroke="#f00"/>
  </marker>
  <marker id="arrowVoltageStart" overflow="visible" orient="auto">
   <path transform="matrix(.25 0 0 .25 1.8231 0)" d="m0 0 5-5-17.5 5 17.5 5z" fill="#217b21" fill-rule="evenodd" stroke="#217b21"/>
  </marker>
 </defs>
 <g transform="translate(-65.2 -136.21)">
  <g>
   <path d="m85 150h15.5l2 3 3-6 3 6 3-6 3 6 3-6 2 3h15.5" fill="none" stroke="#000" stroke-linecap="round" stroke-linejoin="round"/>
  </g>
  <g transform="matrix(.553 0 0 .553 -111.2 -169.07)">
   <g transform="matrix(1.3333 0 0 1.3333 389.94 554.46)" ns2:alignment="middle center" ns2:inkscapeversion="1.0.1" ns2:jacobian_sqrt="1.33333" ns2:pdfconverter="inkscape" ns2:preamble="C:\Users\Bio\AppData\Roaming\inkscape\extensions\circuitSymbols/circuitSymbolsPreamble.tex" ns2:scale="1.0" ns2:stroke-to-path="0" ns2:texconverter="pdflatex" ns2:text=" $R_M$" ns2:version="1.5.0">
    <defs></defs>
    <g transform="translate(-149.12 -127.95)">
     <g id="id-989e5ec1-8144-4d9b-88d1-68f36adcb6ee">
      <g transform="translate(148.71 134.76)">
       <path id="id-e6df058b-8fe9-429e-803e-d362c4a7efab" d="m3.7344-6.125c0.0625-0.23438 0.09375-0.32812 0.28125-0.35938 0.09375-0.015625 0.40625-0.015625 0.60938-0.015625 0.70312 0 1.8125 0 1.8125 0.98438 0 0.34375-0.15625 1.0312-0.54688 1.4219-0.26562 0.25-0.78125 0.57812-1.6875 0.57812h-1.1094zm1.4375 2.7344c1.0156-0.21875 2.1875-0.92188 2.1875-1.9219 0-0.85938-0.89062-1.5-2.2031-1.5h-2.8281c-0.20312 0-0.29688 0-0.29688 0.20312 0 0.10938 0.09375 0.10938 0.28125 0.10938 0.015625 0 0.20312 0 0.375 0.015625 0.1875 0.03125 0.26562 0.03125 0.26562 0.17188 0 0.03125 0 0.0625-0.03125 0.1875l-1.3438 5.3438c-0.09375 0.39062-0.10938 0.46875-0.90625 0.46875-0.17188 0-0.26562 0-0.26562 0.20312 0 0.10938 0.125 0.10938 0.14062 0.10938 0.28125 0 0.98438-0.03125 1.25-0.03125 0.28125 0 1 0.03125 1.2812 0.03125 0.078125 0 0.1875 0 0.1875-0.20312 0-0.10938-0.078125-0.10938-0.28125-0.10938-0.35938 0-0.64062 0-0.64062-0.17188 0-0.0625 0.015625-0.10938 0.03125-0.17188l0.65625-2.6406h1.1875c0.90625 0 1.0781 0.5625 1.0781 0.90625 0 0.14062-0.078125 0.45312-0.14062 0.6875-0.0625 0.28125-0.15625 0.64062-0.15625 0.84375 0 1.0781 1.2031 1.0781 1.3281 1.0781 0.84375 0 1.2031-1 1.2031-1.1406 0-0.125-0.10938-0.125-0.125-0.125-0.09375 0-0.10938 0.0625-0.125 0.14062-0.25 0.73438-0.6875 0.90625-0.90625 0.90625-0.32812 0-0.40625-0.21875-0.40625-0.60938 0-0.3125 0.0625-0.8125 0.10938-1.1406 0.015625-0.14062 0.03125-0.32812 0.03125-0.46875 0-0.76562-0.67188-1.0781-0.9375-1.1719z"/>
      </g>
     </g>
     <g id="id-88feec0a-359f-4963-84fe-fe6a4fcf898c">
      <g transform="translate(156.28 136.26)">
       <path id="id-2404912e-4043-4cee-86f0-ec4bc02216ca" d="m7.1094-4.1875c0.0625-0.26562 0.078125-0.32812 0.59375-0.32812 0.15625 0 0.23438 0 0.23438-0.14062 0-0.10938-0.078125-0.10938-0.20312-0.10938h-0.95312c-0.20312 0-0.20312 0.015625-0.29688 0.14062l-2.6875 3.9844-0.6875-3.9375c-0.03125-0.17188-0.03125-0.1875-0.25-0.1875h-0.98438c-0.14062 0-0.23438 0-0.23438 0.15625 0 0.09375 0.078125 0.09375 0.23438 0.09375 0.10938 0 0.14062 0 0.26562 0.015625 0.14062 0.015625 0.15625 0.03125 0.15625 0.10938 0 0 0 0.046875-0.03125 0.14062l-0.875 3.5c-0.0625 0.23438-0.17188 0.48438-0.73438 0.5-0.046875 0-0.14062 0-0.14062 0.15625 0 0 0 0.09375 0.10938 0.09375 0.20312 0 0.5-0.03125 0.71875-0.03125 0.17188 0 0.57812 0.03125 0.73438 0.03125 0.046875 0 0.14062 0 0.14062-0.15625 0-0.09375-0.09375-0.09375-0.15625-0.09375-0.4375-0.015625-0.4375-0.20312-0.4375-0.29688 0-0.03125 0-0.0625 0.03125-0.17188l0.92188-3.7031 0.75 4.2344c0.03125 0.125 0.03125 0.1875 0.14062 0.1875 0.09375 0 0.15625-0.078125 0.20312-0.15625l2.9219-4.3438 0.015625 0.015625-0.98438 3.9375c-0.0625 0.23438-0.078125 0.29688-0.60938 0.29688-0.125 0-0.21875 0-0.21875 0.15625 0 0 0 0.09375 0.10938 0.09375 0.14062 0 0.29688-0.015625 0.4375-0.015625s0.29688-0.015625 0.4375-0.015625c0.20312 0 0.6875 0.03125 0.89062 0.03125 0.03125 0 0.14062 0 0.14062-0.15625 0-0.09375-0.078125-0.09375-0.21875-0.09375-0.015625 0-0.14062 0-0.26562-0.015625-0.15625-0.015625-0.15625-0.03125-0.15625-0.10938 0-0.03125 0.015625-0.10938 0.015625-0.14062z"/>
      </g>
     </g>
    </g>
   </g>
  </g>
  <g transform="translate(-37.952)">
   <path d="m125 145h10" fill="none" marker-end="url(#arrowCurrentEnd)" stroke="#f00" stroke-linecap="round" stroke-linejoin="round"/>
   <g transform="matrix(.553 0 0 .553 -91.199 -170.41)">
    <g transform="matrix(1.3333 0 0 1.3333 392.02 554.46)" ns2:alignment="middle center" ns2:inkscapeversion="1.0.1" ns2:jacobian_sqrt="1.33333" ns2:pdfconverter="inkscape" ns2:preamble="C:\Users\Bio\AppData\Roaming\inkscape\extensions\circuitSymbols/circuitSymbolsPreamble.tex" ns2:scale="1.0" ns2:stroke-to-path="0" ns2:texconverter="pdflatex" ns2:text=" $I_M$" ns2:version="1.5.0">
     <defs></defs>
     <g transform="translate(-149.06 -127.95)" fill="#f00">
      <g transform="translate(148.71 134.76)">
       <path d="m3.7344-6.0469c0.078125-0.35938 0.10938-0.45312 0.90625-0.45312 0.23438 0 0.3125 0 0.3125-0.1875 0-0.125-0.10938-0.125-0.14062-0.125-0.29688 0-1.0312 0.03125-1.3281 0.03125s-1.0156-0.03125-1.3281-0.03125c-0.0625 0-0.1875 0-0.1875 0.20312 0 0.10938 0.078125 0.10938 0.28125 0.10938 0.40625 0 0.6875 0 0.6875 0.1875 0 0.046875 0 0.078125-0.03125 0.15625l-1.3438 5.375c-0.09375 0.375-0.10938 0.46875-0.90625 0.46875-0.23438 0-0.3125 0-0.3125 0.20312 0 0.10938 0.10938 0.10938 0.14062 0.10938 0.29688 0 1.0156-0.03125 1.3125-0.03125s1.0312 0.03125 1.3281 0.03125c0.078125 0 0.20312 0 0.20312-0.1875 0-0.125-0.078125-0.125-0.29688-0.125-0.1875 0-0.23438 0-0.42188-0.015625-0.21875-0.015625-0.25-0.0625-0.25-0.17188 0-0.078125 0.015625-0.15625 0.03125-0.23438z"/>
      </g>
      <g id="id-03437ba9-c577-4eda-b318-b16f6d2f3b4c">
       <g transform="translate(153.09 136.26)">
        <path d="m7.1094-4.1875c0.0625-0.26562 0.078125-0.32812 0.59375-0.32812 0.15625 0 0.23438 0 0.23438-0.14062 0-0.10938-0.078125-0.10938-0.20312-0.10938h-0.95312c-0.20312 0-0.20312 0.015625-0.29688 0.14062l-2.6875 3.9844-0.6875-3.9375c-0.03125-0.17188-0.03125-0.1875-0.25-0.1875h-0.98438c-0.14062 0-0.23438 0-0.23438 0.15625 0 0.09375 0.078125 0.09375 0.23438 0.09375 0.10938 0 0.14062 0 0.26562 0.015625 0.14062 0.015625 0.15625 0.03125 0.15625 0.10938 0 0 0 0.046875-0.03125 0.14062l-0.875 3.5c-0.0625 0.23438-0.17188 0.48438-0.73438 0.5-0.046875 0-0.14062 0-0.14062 0.15625 0 0 0 0.09375 0.10938 0.09375 0.20312 0 0.5-0.03125 0.71875-0.03125 0.17188 0 0.57812 0.03125 0.73438 0.03125 0.046875 0 0.14062 0 0.14062-0.15625 0-0.09375-0.09375-0.09375-0.15625-0.09375-0.4375-0.015625-0.4375-0.20312-0.4375-0.29688 0-0.03125 0-0.0625 0.03125-0.17188l0.92188-3.7031 0.75 4.2344c0.03125 0.125 0.03125 0.1875 0.14062 0.1875 0.09375 0 0.15625-0.078125 0.20312-0.15625l2.9219-4.3438 0.015625 0.015625-0.98438 3.9375c-0.0625 0.23438-0.078125 0.29688-0.60938 0.29688-0.125 0-0.21875 0-0.21875 0.15625 0 0 0 0.09375 0.10938 0.09375 0.14062 0 0.29688-0.015625 0.4375-0.015625s0.29688-0.015625 0.4375-0.015625c0.20312 0 0.6875 0.03125 0.89062 0.03125 0.03125 0 0.14062 0 0.14062-0.15625 0-0.09375-0.078125-0.09375-0.21875-0.09375-0.015625 0-0.14062 0-0.26562-0.015625-0.15625-0.015625-0.15625-0.03125-0.15625-0.10938 0-0.03125 0.015625-0.10938 0.015625-0.14062z"/>
       </g>
      </g>
     </g>
    </g>
   </g>
  </g>
 </g>
 <g transform="translate(-9.9287 -158.58)">
  <g fill="none" stroke="#000" stroke-linecap="round" stroke-linejoin="round">
   <path d="m80 220v10"/>
   <path d="m87 230h-14"/>
   <path d="m83.5 232h-7"/>
   <path d="m81 234h-2"/>
  </g>
 </g>
 <g transform="rotate(90 140.36 96.796)">
  <path d="m100 220a60 60 0 0 1-40 0" fill="none" marker-start="url(#arrowVoltageStart)" stroke="#217b21" stroke-linecap="round" stroke-linejoin="round"/>
  <g transform="matrix(0 -.553 .553 0 -229.68 453.49)">
   <g transform="matrix(1.3333 0 0 1.3333 391.21 554.46)" ns2:alignment="middle center" ns2:inkscapeversion="1.0.1" ns2:jacobian_sqrt="1.33333" ns2:pdfconverter="inkscape" ns2:preamble="C:\Users\Bio\AppData\Roaming\inkscape\extensions\circuitSymbols/circuitSymbolsPreamble.tex" ns2:scale="1.0" ns2:stroke-to-path="0" ns2:texconverter="pdflatex" ns2:text=" $V_M$" ns2:version="1.5.0">
    <defs></defs>
    <g transform="translate(-149.28 -127.95)">
     <g fill="#217b21">
      <g transform="translate(148.71 134.76)">
       <path d="m6.2656-5.6719c0.48438-0.78125 0.90625-0.8125 1.2656-0.82812 0.125-0.015625 0.14062-0.17188 0.14062-0.1875 0-0.078125-0.0625-0.125-0.14062-0.125-0.25 0-0.54688 0.03125-0.8125 0.03125-0.32812 0-0.67188-0.03125-0.98438-0.03125-0.0625 0-0.1875 0-0.1875 0.1875 0 0.10938 0.078125 0.125 0.15625 0.125 0.26562 0.015625 0.45312 0.125 0.45312 0.32812 0 0.15625-0.14062 0.375-0.14062 0.375l-3.0625 4.875-0.6875-5.2812c0-0.17188 0.23438-0.29688 0.6875-0.29688 0.14062 0 0.25 0 0.25-0.20312 0-0.078125-0.078125-0.10938-0.125-0.10938-0.40625 0-0.82812 0.03125-1.25 0.03125h-0.54688c-0.17188 0-0.35938-0.03125-0.53125-0.03125-0.078125 0-0.1875 0-0.1875 0.1875 0 0.125 0.078125 0.125 0.25 0.125 0.54688 0 0.5625 0.09375 0.59375 0.34375l0.78125 6.1406c0.03125 0.20312 0.078125 0.23438 0.20312 0.23438 0.15625 0 0.20312-0.046875 0.28125-0.17188z"/>
      </g>
      <g transform="translate(154.52 136.26)">
       <path d="m7.1094-4.1875c0.0625-0.26562 0.078125-0.32812 0.59375-0.32812 0.15625 0 0.23438 0 0.23438-0.14062 0-0.10938-0.078125-0.10938-0.20312-0.10938h-0.95312c-0.20312 0-0.20312 0.015625-0.29688 0.14062l-2.6875 3.9844-0.6875-3.9375c-0.03125-0.17188-0.03125-0.1875-0.25-0.1875h-0.98438c-0.14062 0-0.23438 0-0.23438 0.15625 0 0.09375 0.078125 0.09375 0.23438 0.09375 0.10938 0 0.14062 0 0.26562 0.015625 0.14062 0.015625 0.15625 0.03125 0.15625 0.10938 0 0 0 0.046875-0.03125 0.14062l-0.875 3.5c-0.0625 0.23438-0.17188 0.48438-0.73438 0.5-0.046875 0-0.14062 0-0.14062 0.15625 0 0 0 0.09375 0.10938 0.09375 0.20312 0 0.5-0.03125 0.71875-0.03125 0.17188 0 0.57812 0.03125 0.73438 0.03125 0.046875 0 0.14062 0 0.14062-0.15625 0-0.09375-0.09375-0.09375-0.15625-0.09375-0.4375-0.015625-0.4375-0.20312-0.4375-0.29688 0-0.03125 0-0.0625 0.03125-0.17188l0.92188-3.7031 0.75 4.2344c0.03125 0.125 0.03125 0.1875 0.14062 0.1875 0.09375 0 0.15625-0.078125 0.20312-0.15625l2.9219-4.3438 0.015625 0.015625-0.98438 3.9375c-0.0625 0.23438-0.078125 0.29688-0.60938 0.29688-0.125 0-0.21875 0-0.21875 0.15625 0 0 0 0.09375 0.10938 0.09375 0.14062 0 0.29688-0.015625 0.4375-0.015625s0.29688-0.015625 0.4375-0.015625c0.20312 0 0.6875 0.03125 0.89062 0.03125 0.03125 0 0.14062 0 0.14062-0.15625 0-0.09375-0.078125-0.09375-0.21875-0.09375-0.015625 0-0.14062 0-0.26562-0.015625-0.15625-0.015625-0.15625-0.03125-0.15625-0.10938 0-0.03125 0.015625-0.10938 0.015625-0.14062z"/>
      </g>
     </g>
    </g>
   </g>
  </g>
 </g>
 <g transform="translate(-72.804 -131.73)">
  <path d="m92.604 193.15h50.271v-47.625" fill="none" stroke="#000" stroke-linecap="round" stroke-linejoin="round"/>
  <circle id="path1970" cx="92.604" cy="193.15" r="2.6458" fill="#fff" stroke="#000" stroke-linecap="round" stroke-linejoin="round"/>
  <use transform="translate(1.3765e-6 -47.625)" width="100%" height="100%" xlink:href="#path1970"/>
  <rect x="140.23" y="156.1" width="5.2917" height="26.458" stroke="#000" stroke-linecap="round" stroke-linejoin="round"/>
  <circle cx="142.88" cy="169.33" r="10" fill="#fff" fill-rule="evenodd" stroke="#000"/>
  <text transform="translate(.83135 2.1287)" fill="#000000" font-family="sans-serif" font-size="10.583px" style="line-height:1.25;shape-inside:url(#rect1966);white-space:pre" xml:space="preserve"><tspan x="137.58398" y="171.05195"><tspan>M</tspan></tspan></text>
  <g stroke="#000">
   <path d="m152.88 169.33h53.5" fill="none"/>
   <rect x="171.98" y="164.04" width="15.875" height="10.583" fill="#fff" stroke-linecap="round" stroke-linejoin="round"/>
   <path id="path2479" d="m171.98 150.81v10.583h15.875v-10.583" fill="url(#pattern4404)" stroke="#000" stroke-width=".26458px"/>
  </g>
  <use transform="rotate(180 179.92 169.33)" width="100%" height="100%" xlink:href="#path2479"/>
  <g transform="matrix(.75544 0 0 .75544 174.22 141.13)" ns2:alignment="middle center" ns2:inkscapeversion="1.0.2-2" ns2:jacobian_sqrt="0.352778" ns2:pdfconverter="inkscape" ns2:preamble="C:\Users\Bio\AppData\Roaming\inkscape\extensions\circuitSymbols\circuitSymbolsPreamble.tex" ns2:scale="1.0" ns2:stroke-to-path="0" ns2:texconverter="pdflatex" ns2:text="$B_M$" ns2:version="1.5.0">
   <defs></defs>
   <g id="id-15a22c52-750e-434b-a07e-9004d3e2bcdc" transform="translate(-149.13 -127.95)">
    <g transform="translate(148.71 134.76)">
     <path d="m1.5938-0.78125c-0.09375 0.39062-0.125 0.46875-0.90625 0.46875-0.17188 0-0.26562 0-0.26562 0.20312 0 0.10938 0.09375 0.10938 0.26562 0.10938h3.5625c1.5781 0 2.75-1.1719 2.75-2.1562 0-0.71875-0.57812-1.2969-1.5469-1.4062 1.0312-0.1875 2.0781-0.92188 2.0781-1.875 0-0.73438-0.65625-1.375-1.8438-1.375h-3.3594c-0.1875 0-0.28125 0-0.28125 0.20312 0 0.10938 0.09375 0.10938 0.28125 0.10938 0.015625 0 0.20312 0 0.375 0.015625 0.17188 0.03125 0.26562 0.03125 0.26562 0.17188 0 0.03125-0.015625 0.0625-0.03125 0.1875zm1.5-2.875 0.625-2.4688c0.09375-0.34375 0.10938-0.375 0.53125-0.375h1.2969c0.875 0 1.0781 0.59375 1.0781 1.0312 0 0.875-0.85938 1.8125-2.0625 1.8125zm-0.4375 3.3438h-0.21875c-0.10938-0.015625-0.14062-0.03125-0.14062-0.10938 0-0.03125 0-0.046875 0.0625-0.21875l0.6875-2.7812h1.875c0.95312 0 1.1562 0.73438 1.1562 1.1562 0 0.98438-0.89062 1.9531-2.0781 1.9531z"/>
    </g>
    <g id="id-4b4fe864-4254-404d-9a23-6f3e915e878d">
     <g transform="translate(156.27 136.26)">
      <path d="m7.1094-4.1875c0.0625-0.26562 0.078125-0.32812 0.59375-0.32812 0.15625 0 0.23438 0 0.23438-0.14062 0-0.10938-0.078125-0.10938-0.20312-0.10938h-0.95312c-0.20312 0-0.20312 0.015625-0.29688 0.14062l-2.6875 3.9844-0.6875-3.9375c-0.03125-0.17188-0.03125-0.1875-0.25-0.1875h-0.98438c-0.14062 0-0.23438 0-0.23438 0.15625 0 0.09375 0.078125 0.09375 0.23438 0.09375 0.10938 0 0.14062 0 0.26562 0.015625 0.14062 0.015625 0.15625 0.03125 0.15625 0.10938 0 0 0 0.046875-0.03125 0.14062l-0.875 3.5c-0.0625 0.23438-0.17188 0.48438-0.73438 0.5-0.046875 0-0.14062 0-0.14062 0.15625 0 0 0 0.09375 0.10938 0.09375 0.20312 0 0.5-0.03125 0.71875-0.03125 0.17188 0 0.57812 0.03125 0.73438 0.03125 0.046875 0 0.14062 0 0.14062-0.15625 0-0.09375-0.09375-0.09375-0.15625-0.09375-0.4375-0.015625-0.4375-0.20312-0.4375-0.29688 0-0.03125 0-0.0625 0.03125-0.17188l0.92188-3.7031 0.75 4.2344c0.03125 0.125 0.03125 0.1875 0.14062 0.1875 0.09375 0 0.15625-0.078125 0.20312-0.15625l2.9219-4.3438 0.015625 0.015625-0.98438 3.9375c-0.0625 0.23438-0.078125 0.29688-0.60938 0.29688-0.125 0-0.21875 0-0.21875 0.15625 0 0 0 0.09375 0.10938 0.09375 0.14062 0 0.29688-0.015625 0.4375-0.015625s0.29688-0.015625 0.4375-0.015625c0.20312 0 0.6875 0.03125 0.89062 0.03125 0.03125 0 0.14062 0 0.14062-0.15625 0-0.09375-0.078125-0.09375-0.21875-0.09375-0.015625 0-0.14062 0-0.26562-0.015625-0.15625-0.015625-0.15625-0.03125-0.15625-0.10938 0-0.03125 0.015625-0.10938 0.015625-0.14062z"/>
     </g>
    </g>
   </g>
  </g>
  <g transform="matrix(.75544 0 0 .75544 155.1 182.58)" fill="#00f" ns2:alignment="middle center" ns2:inkscapeversion="1.0.2-2" ns2:jacobian_sqrt="0.755442" ns2:pdfconverter="inkscape" ns2:preamble="C:\Users\Bio\AppData\Roaming\inkscape\extensions\circuitSymbols\circuitSymbolsPreamble.tex" ns2:scale="2.1414077408455174" ns2:stroke-to-path="0" ns2:texconverter="pdflatex" ns2:text="$\\varphi_M$," ns2:version="1.5.0">
   <defs id="id-a4ac0516-2a3c-49c2-9173-0af2db9b670a"></defs>
   <g id="id-33d6a872-8377-4814-92dc-556e6f5f235d" transform="translate(-149.21 -130.36)" fill="#00f">
    <g fill="#00f">
     <g transform="translate(148.71 134.76)">
      <path id="id-a365f918-f951-4ed6-bbbc-51e2495ee5ca" d="m1.6875 1.6875c-0.03125 0.14062-0.046875 0.15625-0.046875 0.20312 0 0.21875 0.1875 0.28125 0.29688 0.28125 0.046875 0 0.26562-0.03125 0.35938-0.26562 0.03125-0.078125 0.078125-0.40625 0.35938-1.8125 0.078125 0 0.15625 0.015625 0.32812 0.015625 1.6562 0 3.1875-1.5625 3.1875-3.1406 0-0.78125-0.39062-1.375-1.1406-1.375-1.4375 0-2.0469 1.9375-2.6406 3.875-1.0781-0.20312-1.6406-0.75-1.6406-1.4688 0-0.28125 0.23438-1.375 0.82812-2.0625 0.09375-0.09375 0.09375-0.10938 0.09375-0.14062s-0.03125-0.09375-0.125-0.09375c-0.28125 0-1.0469 1.4531-1.0469 2.4062 0 0.9375 0.65625 1.6562 1.7188 1.9062zm1.3906-2.1562c-0.09375 0-0.10938 0-0.1875-0.015625-0.125 0-0.125 0-0.125-0.03125 0-0.015625 0.17188-0.9375 0.1875-1.0781 0.3125-1.2812 1.0938-2.2344 1.9844-2.2344 0.6875 0 0.95312 0.53125 0.95312 1.0156 0 1.125-1.2812 2.3438-2.8125 2.3438z" fill="#00f"/>
     </g>
     <g transform="translate(155.23 136.26)">
      <path d="m7.1094-4.1875c0.0625-0.26562 0.078125-0.32812 0.59375-0.32812 0.15625 0 0.23438 0 0.23438-0.14062 0-0.10938-0.078125-0.10938-0.20312-0.10938h-0.95312c-0.20312 0-0.20312 0.015625-0.29688 0.14062l-2.6875 3.9844-0.6875-3.9375c-0.03125-0.17188-0.03125-0.1875-0.25-0.1875h-0.98438c-0.14062 0-0.23438 0-0.23438 0.15625 0 0.09375 0.078125 0.09375 0.23438 0.09375 0.10938 0 0.14062 0 0.26562 0.015625 0.14062 0.015625 0.15625 0.03125 0.15625 0.10938 0 0 0 0.046875-0.03125 0.14062l-0.875 3.5c-0.0625 0.23438-0.17188 0.48438-0.73438 0.5-0.046875 0-0.14062 0-0.14062 0.15625 0 0 0 0.09375 0.10938 0.09375 0.20312 0 0.5-0.03125 0.71875-0.03125 0.17188 0 0.57812 0.03125 0.73438 0.03125 0.046875 0 0.14062 0 0.14062-0.15625 0-0.09375-0.09375-0.09375-0.15625-0.09375-0.4375-0.015625-0.4375-0.20312-0.4375-0.29688 0-0.03125 0-0.0625 0.03125-0.17188l0.92188-3.7031 0.75 4.2344c0.03125 0.125 0.03125 0.1875 0.14062 0.1875 0.09375 0 0.15625-0.078125 0.20312-0.15625l2.9219-4.3438 0.015625 0.015625-0.98438 3.9375c-0.0625 0.23438-0.078125 0.29688-0.60938 0.29688-0.125 0-0.21875 0-0.21875 0.15625 0 0 0 0.09375 0.10938 0.09375 0.14062 0 0.29688-0.015625 0.4375-0.015625s0.29688-0.015625 0.4375-0.015625c0.20312 0 0.6875 0.03125 0.89062 0.03125 0.03125 0 0.14062 0 0.14062-0.15625 0-0.09375-0.078125-0.09375-0.21875-0.09375-0.015625 0-0.14062 0-0.26562-0.015625-0.15625-0.015625-0.15625-0.03125-0.15625-0.10938 0-0.03125 0.015625-0.10938 0.015625-0.14062z" fill="#00f"/>
     </g>
     <g transform="translate(164.07 134.76)">
      <path id="id-cbd75344-5df8-4d3b-8b66-df4e82e0d0ea" d="m2.0312-0.015625c0-0.625-0.25-1.0469-0.64062-1.0469-0.35938 0-0.53125 0.28125-0.53125 0.53125 0 0.26562 0.17188 0.53125 0.53125 0.53125 0.15625 0 0.28125-0.0625 0.375-0.14062l0.015625-0.015625c0.015625 0 0.015625 0 0.015625 0.14062 0 0.64062-0.26562 1.25-0.70312 1.7188-0.0625 0.0625-0.078125 0.078125-0.078125 0.10938 0 0.078125 0.046875 0.10938 0.09375 0.10938 0.125 0 0.92188-0.78125 0.92188-1.9375z" fill="#00f"/>
     </g>
    </g>
   </g>
  </g>
  <g transform="matrix(.75544 0 0 .75544 154.99 188.85)" fill="#00f" ns2:alignment="middle center" ns2:inkscapeversion="1.0.2-2" ns2:jacobian_sqrt="0.755442" ns2:pdfconverter="inkscape" ns2:preamble="C:\Users\Bio\AppData\Roaming\inkscape\extensions\circuitSymbols\circuitSymbolsPreamble.tex" ns2:scale="2.1414077408455174" ns2:stroke-to-path="0" ns2:texconverter="pdflatex" ns2:text="$M_M$" ns2:version="1.5.0">
   <defs></defs>
   <g transform="translate(-149.13 -127.95)" fill="#00f">
    <g id="id-78c75e9a-c810-4982-9c57-de24e3a2543d">
     <g transform="translate(148.71 134.76)" fill="#00f">
      <path d="m9.2344-6.0469c0.09375-0.35938 0.10938-0.45312 0.85938-0.45312 0.21875 0 0.3125 0 0.3125-0.20312 0-0.10938-0.09375-0.10938-0.26562-0.10938h-1.3125c-0.26562 0-0.28125 0-0.39062 0.1875l-3.6406 5.6875-0.78125-5.6406c-0.03125-0.23438-0.046875-0.23438-0.3125-0.23438h-1.3594c-0.1875 0-0.29688 0-0.29688 0.1875 0 0.125 0.09375 0.125 0.28125 0.125 0.14062 0 0.3125 0.015625 0.4375 0.015625 0.15625 0.03125 0.21875 0.046875 0.21875 0.17188 0 0.03125-0.015625 0.0625-0.046875 0.1875l-1.2656 5.0625c-0.09375 0.40625-0.26562 0.71875-1.0781 0.75-0.046875 0-0.17188 0.015625-0.17188 0.1875 0 0.09375 0.0625 0.125 0.14062 0.125 0.3125 0 0.65625-0.03125 1-0.03125 0.32812 0 0.6875 0.03125 1.0156 0.03125 0.046875 0 0.1875 0 0.1875-0.20312 0-0.10938-0.10938-0.10938-0.1875-0.10938-0.5625 0-0.67188-0.20312-0.67188-0.4375 0-0.0625 0-0.125 0.03125-0.23438l1.3594-5.4219h0.015625l0.85938 6.1719c0.015625 0.125 0.03125 0.23438 0.14062 0.23438s0.17188-0.10938 0.21875-0.17188l4.0312-6.3125h0.015625l-1.4375 5.7031c-0.09375 0.39062-0.10938 0.46875-0.90625 0.46875-0.15625 0-0.26562 0-0.26562 0.1875 0 0.125 0.10938 0.125 0.14062 0.125 0.28125 0 0.95312-0.03125 1.2344-0.03125 0.40625 0 0.84375 0.03125 1.25 0.03125 0.0625 0 0.1875 0 0.1875-0.20312 0-0.10938-0.09375-0.10938-0.28125-0.10938-0.35938 0-0.64062 0-0.64062-0.17188 0-0.046875 0-0.0625 0.046875-0.25z" fill="#00f"/>
     </g>
    </g>
    <g id="id-322a3f92-2048-4904-bcff-e89e8c1b4dfa">
     <g transform="translate(158.38 136.26)" fill="#00f">
      <path id="id-69abc3a0-84a6-4ec0-ae3c-44030631b5dd" d="m7.1094-4.1875c0.0625-0.26562 0.078125-0.32812 0.59375-0.32812 0.15625 0 0.23438 0 0.23438-0.14062 0-0.10938-0.078125-0.10938-0.20312-0.10938h-0.95312c-0.20312 0-0.20312 0.015625-0.29688 0.14062l-2.6875 3.9844-0.6875-3.9375c-0.03125-0.17188-0.03125-0.1875-0.25-0.1875h-0.98438c-0.14062 0-0.23438 0-0.23438 0.15625 0 0.09375 0.078125 0.09375 0.23438 0.09375 0.10938 0 0.14062 0 0.26562 0.015625 0.14062 0.015625 0.15625 0.03125 0.15625 0.10938 0 0 0 0.046875-0.03125 0.14062l-0.875 3.5c-0.0625 0.23438-0.17188 0.48438-0.73438 0.5-0.046875 0-0.14062 0-0.14062 0.15625 0 0 0 0.09375 0.10938 0.09375 0.20312 0 0.5-0.03125 0.71875-0.03125 0.17188 0 0.57812 0.03125 0.73438 0.03125 0.046875 0 0.14062 0 0.14062-0.15625 0-0.09375-0.09375-0.09375-0.15625-0.09375-0.4375-0.015625-0.4375-0.20312-0.4375-0.29688 0-0.03125 0-0.0625 0.03125-0.17188l0.92188-3.7031 0.75 4.2344c0.03125 0.125 0.03125 0.1875 0.14062 0.1875 0.09375 0 0.15625-0.078125 0.20312-0.15625l2.9219-4.3438 0.015625 0.015625-0.98438 3.9375c-0.0625 0.23438-0.078125 0.29688-0.60938 0.29688-0.125 0-0.21875 0-0.21875 0.15625 0 0 0 0.09375 0.10938 0.09375 0.14062 0 0.29688-0.015625 0.4375-0.015625s0.29688-0.015625 0.4375-0.015625c0.20312 0 0.6875 0.03125 0.89062 0.03125 0.03125 0 0.14062 0 0.14062-0.15625 0-0.09375-0.078125-0.09375-0.21875-0.09375-0.015625 0-0.14062 0-0.26562-0.015625-0.15625-0.015625-0.15625-0.03125-0.15625-0.10938 0-0.03125 0.015625-0.10938 0.015625-0.14062z" fill="#00f"/>
     </g>
    </g>
   </g>
  </g>
  <path transform="rotate(90)" d="m179.33-159.57a30 30 0 0 1-20 0" fill="none" marker-start="url(#marker2584)" stroke="#00f" stroke-linecap="round" stroke-linejoin="round"/>
  <path transform="rotate(90)" d="m179.47-199.26a30 30 0 0 1-20 0" fill="none" marker-start="url(#marker3320)" stroke="#00f" stroke-linecap="round" stroke-linejoin="round"/>
  <g transform="matrix(.75544 0 0 .75544 196.55 182.51)" fill="#00f" stroke-width="0" ns2:alignment="middle center" ns2:inkscapeversion="1.0.2-2" ns2:jacobian_sqrt="0.755442" ns2:pdfconverter="inkscape" ns2:preamble="C:\Users\Bio\AppData\Roaming\inkscape\extensions\circuitSymbols\circuitSymbolsPreamble.tex" ns2:scale="2.1414077408455174" ns2:stroke-to-path="0" ns2:texconverter="pdflatex" ns2:text="$T$" ns2:version="1.5.0">
   <defs id="id-959e69e4-657f-4699-acb0-2a924f0b211e"></defs>
   <g id="id-aabcc57b-f167-474c-9aa9-797cafa51f0f" transform="translate(-148.95 -128.02)" fill="#00f" stroke-width="0">
    <g fill="#00f" stroke-width="0">
     <g transform="translate(148.71 134.76)" fill="#00f" stroke-width="0">
      <path d="m4.25-6.0469c0.078125-0.28125 0.10938-0.34375 0.23438-0.375 0.09375-0.015625 0.42188-0.015625 0.625-0.015625 1.0156 0 1.4531 0.03125 1.4531 0.8125 0 0.15625-0.03125 0.54688-0.078125 0.79688 0 0.046875-0.03125 0.15625-0.03125 0.1875 0 0.0625 0.03125 0.14062 0.125 0.14062 0.10938 0 0.125-0.078125 0.15625-0.23438l0.26562-1.7344c0.015625-0.046875 0.015625-0.14062 0.015625-0.17188 0-0.10938-0.09375-0.10938-0.26562-0.10938h-5.5312c-0.23438 0-0.25 0.015625-0.32812 0.20312l-0.59375 1.75c0 0.015625-0.0625 0.15625-0.0625 0.1875 0 0.046875 0.0625 0.10938 0.125 0.10938 0.09375 0 0.10938-0.0625 0.17188-0.21875 0.53125-1.5469 0.79688-1.7188 2.2656-1.7188h0.39062c0.28125 0 0.28125 0.03125 0.28125 0.125 0 0.046875-0.03125 0.17188-0.046875 0.20312l-1.3281 5.3281c-0.09375 0.35938-0.125 0.46875-1.1875 0.46875-0.35938 0-0.42188 0-0.42188 0.1875 0 0.125 0.10938 0.125 0.17188 0.125 0.26562 0 0.54688-0.015625 0.8125-0.015625 0.28125 0 0.57812-0.015625 0.85938-0.015625s0.54688 0.015625 0.82812 0.015625 0.57812 0.015625 0.85938 0.015625c0.09375 0 0.21875 0 0.21875-0.20312 0-0.10938-0.078125-0.10938-0.34375-0.10938-0.23438 0-0.375 0-0.625-0.015625-0.29688-0.03125-0.375-0.0625-0.375-0.21875 0-0.015625 0-0.0625 0.046875-0.20312z" fill="#00f" stroke-width="0"/>
     </g>
    </g>
   </g>
  </g>
 </g>
 <g transform="rotate(90 175.05 63.506)">
  <path d="m160 180a30 30 0 0 1-20 0" fill="none" marker-start="url(#arrowVoltageStart)" stroke="#217b21" stroke-linecap="round" stroke-linejoin="round"/>
  <g transform="matrix(0 -.553 .553 0 -159.68 411.83)">
   <g transform="matrix(1.3333 0 0 1.3333 391.1 556.07)" ns2:alignment="middle center" ns2:inkscapeversion="1.0.1" ns2:jacobian_sqrt="1.33333" ns2:pdfconverter="inkscape" ns2:preamble="C:\Users\Bio\AppData\Roaming\inkscape\extensions\circuitSymbols/circuitSymbolsPreamble.tex" ns2:scale="1.0" ns2:stroke-to-path="0" ns2:texconverter="pdflatex" ns2:text=" $u_M$" ns2:version="1.5.0">
    <defs id="id-df9f41df-da39-4692-b01c-384a39d5b80e"></defs>
    <g id="id-eea3dcd0-7261-4432-979f-39450eb6e2ef" transform="translate(-149.01 -130.36)" fill="#217b21">
     <g transform="translate(148.71 134.76)">
      <path d="m3.4844-0.5625c0.10938 0.40625 0.46875 0.67188 0.89062 0.67188 0.34375 0 0.57812-0.23438 0.73438-0.54688 0.17188-0.35938 0.29688-0.96875 0.29688-0.98438 0-0.10938-0.078125-0.10938-0.10938-0.10938-0.10938 0-0.10938 0.046875-0.14062 0.1875-0.14062 0.5625-0.32812 1.2344-0.75 1.2344-0.20312 0-0.3125-0.125-0.3125-0.45312 0-0.21875 0.125-0.6875 0.20312-1.0469l0.28125-1.0781c0.03125-0.14062 0.125-0.51562 0.17188-0.67188 0.046875-0.23438 0.14062-0.60938 0.14062-0.67188 0-0.17188-0.14062-0.26562-0.28125-0.26562-0.046875 0-0.3125 0.015625-0.39062 0.34375-0.1875 0.73438-0.625 2.4844-0.75 3-0.015625 0.046875-0.40625 0.84375-1.1406 0.84375-0.51562 0-0.60938-0.45312-0.60938-0.8125 0-0.5625 0.28125-1.3438 0.53125-2.0312 0.125-0.3125 0.17188-0.45312 0.17188-0.64062 0-0.4375-0.3125-0.8125-0.8125-0.8125-0.95312 0-1.3125 1.4531-1.3125 1.5312 0 0.10938 0.09375 0.10938 0.10938 0.10938 0.10938 0 0.10938-0.03125 0.15625-0.1875 0.25-0.85938 0.64062-1.2344 1.0156-1.2344 0.09375 0 0.25 0.015625 0.25 0.32812 0 0.23438-0.10938 0.53125-0.17188 0.67188-0.375 1-0.57812 1.6094-0.57812 2.0938 0 0.95312 0.6875 1.2031 1.2188 1.2031 0.65625 0 1.0156-0.45312 1.1875-0.67188z"/>
     </g>
     <g id="id-7dee12a2-0ba6-4b18-bef5-ee3339313edf">
      <g transform="translate(154.42 136.26)">
       <path d="m7.1094-4.1875c0.0625-0.26562 0.078125-0.32812 0.59375-0.32812 0.15625 0 0.23438 0 0.23438-0.14062 0-0.10938-0.078125-0.10938-0.20312-0.10938h-0.95312c-0.20312 0-0.20312 0.015625-0.29688 0.14062l-2.6875 3.9844-0.6875-3.9375c-0.03125-0.17188-0.03125-0.1875-0.25-0.1875h-0.98438c-0.14062 0-0.23438 0-0.23438 0.15625 0 0.09375 0.078125 0.09375 0.23438 0.09375 0.10938 0 0.14062 0 0.26562 0.015625 0.14062 0.015625 0.15625 0.03125 0.15625 0.10938 0 0 0 0.046875-0.03125 0.14062l-0.875 3.5c-0.0625 0.23438-0.17188 0.48438-0.73438 0.5-0.046875 0-0.14062 0-0.14062 0.15625 0 0 0 0.09375 0.10938 0.09375 0.20312 0 0.5-0.03125 0.71875-0.03125 0.17188 0 0.57812 0.03125 0.73438 0.03125 0.046875 0 0.14062 0 0.14062-0.15625 0-0.09375-0.09375-0.09375-0.15625-0.09375-0.4375-0.015625-0.4375-0.20312-0.4375-0.29688 0-0.03125 0-0.0625 0.03125-0.17188l0.92188-3.7031 0.75 4.2344c0.03125 0.125 0.03125 0.1875 0.14062 0.1875 0.09375 0 0.15625-0.078125 0.20312-0.15625l2.9219-4.3438 0.015625 0.015625-0.98438 3.9375c-0.0625 0.23438-0.078125 0.29688-0.60938 0.29688-0.125 0-0.21875 0-0.21875 0.15625 0 0 0 0.09375 0.10938 0.09375 0.14062 0 0.29688-0.015625 0.4375-0.015625s0.29688-0.015625 0.4375-0.015625c0.20312 0 0.6875 0.03125 0.89062 0.03125 0.03125 0 0.14062 0 0.14062-0.15625 0-0.09375-0.078125-0.09375-0.21875-0.09375-0.015625 0-0.14062 0-0.26562-0.015625-0.15625-0.015625-0.15625-0.03125-0.15625-0.10938 0-0.03125 0.015625-0.10938 0.015625-0.14062z"/>
      </g>
     </g>
    </g>
   </g>
  </g>
 </g>
</svg>
