<?xml version="1.0" encoding="UTF-8" standalone="no"?>
<svg
   xmlns:osb="http://www.openswatchbook.org/uri/2009/osb"
   xmlns:dc="http://purl.org/dc/elements/1.1/"
   xmlns:cc="http://creativecommons.org/ns#"
   xmlns:rdf="http://www.w3.org/1999/02/22-rdf-syntax-ns#"
   xmlns:svg="http://www.w3.org/2000/svg"
   xmlns="http://www.w3.org/2000/svg"
   xmlns:xlink="http://www.w3.org/1999/xlink"
   xmlns:sodipodi="http://sodipodi.sourceforge.net/DTD/sodipodi-0.dtd"
   xmlns:inkscape="http://www.inkscape.org/namespaces/inkscape"
   width="48"
   height="48"
   viewBox="0 0 12.7 12.7"
   version="1.1"
   id="svg8"
   inkscape:version="1.0.2-2 (e86c870879, 2021-01-15)"
   sodipodi:docname="favicon.svg"
   inkscape:export-filename="C:\Users\Bio\OneDrive\Documents\Projects\Web\web-experiments\media\favicon.png"
   inkscape:export-xdpi="96"
   inkscape:export-ydpi="96">
  <defs
     id="defs2">
    <linearGradient
       inkscape:collect="always"
       id="linearGradient2073">
      <stop
         style="stop-color:#007bff;stop-opacity:1;"
         offset="0"
         id="stop2069" />
      <stop
         style="stop-color:#00ffff;stop-opacity:1"
         offset="1"
         id="stop2071" />
    </linearGradient>
    <rect
       x="1.5875"
       y="1.5875"
       width="15.875"
       height="17.197917"
       id="rect2065" />
    <rect
       x="-3.96875"
       y="-5.2916667"
       width="9.2604167"
       height="5.2916667"
       id="rect1915" />
    <marker
       style="overflow:visible"
       id="DotM"
       refX="0.0"
       refY="0.0"
       orient="auto"
       inkscape:stockid="DotM"
       inkscape:isstock="true">
      <path
         transform="scale(0.4) translate(7.4, 1)"
         style="fill-rule:evenodd;stroke:#000000;stroke-width:1pt;stroke-opacity:1;fill:#000000;fill-opacity:1"
         d="M -2.5,-1.0 C -2.5,1.7600000 -4.7400000,4.0 -7.5,4.0 C -10.260000,4.0 -12.5,1.7600000 -12.5,-1.0 C -12.5,-3.7600000 -10.260000,-6.0 -7.5,-6.0 C -4.7400000,-6.0 -2.5,-3.7600000 -2.5,-1.0 z "
         id="path1505" />
    </marker>
    <marker
       style="overflow:visible"
       id="Arrow2Sstart"
       refX="0.0"
       refY="0.0"
       orient="auto"
       inkscape:stockid="Arrow2Sstart"
       inkscape:isstock="true">
      <path
         transform="scale(0.3) translate(-2.3,0)"
         d="M 8.7185878,4.0337352 L -2.2072895,0.016013256 L 8.7185884,-4.0017078 C 6.9730900,-1.6296469 6.9831476,1.6157441 8.7185878,4.0337352 z "
         style="fill-rule:evenodd;stroke-width:0.625;stroke-linejoin:round;stroke:#000000;stroke-opacity:1;fill:#000000;fill-opacity:1"
         id="path1471" />
    </marker>
    <marker
       style="overflow:visible;"
       id="Arrow2Mend"
       refX="0.0"
       refY="0.0"
       orient="auto"
       inkscape:stockid="Arrow2Mend"
       inkscape:isstock="true">
      <path
         transform="scale(0.6) rotate(180) translate(0,0)"
         d="M 8.7185878,4.0337352 L -2.2072895,0.016013256 L 8.7185884,-4.0017078 C 6.9730900,-1.6296469 6.9831476,1.6157441 8.7185878,4.0337352 z "
         style="fill-rule:evenodd;stroke-width:0.625;stroke-linejoin:round;stroke:#000000;stroke-opacity:1;fill:#000000;fill-opacity:1"
         id="path1468" />
    </marker>
    <marker
       style="overflow:visible;"
       id="Arrow1Send"
       refX="0.0"
       refY="0.0"
       orient="auto"
       inkscape:stockid="Arrow1Send"
       inkscape:isstock="true">
      <path
         transform="scale(0.2) rotate(180) translate(6,0)"
         style="fill-rule:evenodd;stroke:#000000;stroke-width:1pt;stroke-opacity:1;fill:#000000;fill-opacity:1"
         d="M 0.0,0.0 L 5.0,-5.0 L -12.5,0.0 L 5.0,5.0 L 0.0,0.0 z "
         id="path1456" />
    </marker>
    <marker
       style="overflow:visible;"
       id="Arrow1Lend"
       refX="0.0"
       refY="0.0"
       orient="auto"
       inkscape:stockid="Arrow1Lend"
       inkscape:isstock="true">
      <path
         transform="scale(0.8) rotate(180) translate(12.5,0)"
         style="fill-rule:evenodd;stroke:#000000;stroke-width:1pt;stroke-opacity:1;fill:#000000;fill-opacity:1"
         d="M 0.0,0.0 L 5.0,-5.0 L -12.5,0.0 L 5.0,5.0 L 0.0,0.0 z "
         id="path1444" />
    </marker>
    <rect
       x="3.96875"
       y="3.96875"
       width="12.507606"
       height="9.1801683"
       id="rect1425" />
    <linearGradient
       id="linearGradient1419"
       osb:paint="solid">
      <stop
         style="stop-color:#000000;stop-opacity:1;"
         offset="0"
         id="stop1417" />
    </linearGradient>
    <rect
       x="0"
       y="0"
       width="7.9375"
       height="6.6145833"
       id="rect1406" />
    <rect
       x="-3.96875"
       y="-5.2916665"
       width="9.260417"
       height="5.2916665"
       id="rect1915-8" />
    <rect
       x="-3.96875"
       y="-5.2916665"
       width="9.260417"
       height="5.2916665"
       id="rect1928" />
    <linearGradient
       inkscape:collect="always"
       xlink:href="#linearGradient2073"
       id="linearGradient2075"
       x1="5.5562501"
       y1="10.054167"
       x2="9.260417"
       y2="1.3229166"
       gradientUnits="userSpaceOnUse" />
  </defs>
  <sodipodi:namedview
     id="base"
     pagecolor="#ffffff"
     bordercolor="#666666"
     borderopacity="1.0"
     inkscape:pageopacity="0.0"
     inkscape:pageshadow="2"
     inkscape:zoom="11.2"
     inkscape:cx="32.123121"
     inkscape:cy="28.115868"
     inkscape:document-units="mm"
     inkscape:current-layer="layer2"
     inkscape:document-rotation="0"
     showgrid="true"
     units="px"
     showguides="false"
     inkscape:snap-midpoints="true"
     inkscape:snap-grids="true"
     inkscape:window-width="2560"
     inkscape:window-height="1377"
     inkscape:window-x="1912"
     inkscape:window-y="-8"
     inkscape:window-maximized="1">
    <inkscape:grid
       type="xygrid"
       id="grid1402" />
  </sodipodi:namedview>
  <metadata
     id="metadata5">
    <rdf:RDF>
      <cc:Work
         rdf:about="">
        <dc:format>image/svg+xml</dc:format>
        <dc:type
           rdf:resource="http://purl.org/dc/dcmitype/StillImage" />
        <dc:title></dc:title>
      </cc:Work>
    </rdf:RDF>
  </metadata>
  <g
     inkscape:groupmode="layer"
     id="layer2"
     inkscape:label="Layer 2">
    <rect
       style="fill:url(#linearGradient2075);fill-opacity:1;stroke:#000000;stroke-width:0.264583;stroke-miterlimit:4;stroke-dasharray:none;stroke-opacity:1"
       id="rect1980"
       width="12.170834"
       height="12.170834"
       x="0.26458332"
       y="0.26458332"
       ry="1.8520833" />
  </g>
  <g
     inkscape:groupmode="layer"
     id="layer3"
     inkscape:label="Layer 3">
    <path
       fill="currentColor"
       d="M 11.446822,7.6630595 10.508294,7.1210916 c 0.09473,-0.5111234 0.09473,-1.0354658 0,-1.5465893 l 0.938528,-0.5419679 c 0.107953,-0.061687 0.156421,-0.189468 0.12117,-0.3084365 C 11.323447,3.939788 10.907057,3.2303833 10.362887,2.6399472 10.279169,2.5496194 10.142575,2.5275881 10.036825,2.5892784 L 9.0982967,3.1312462 C 8.7039377,2.7919653 8.2500957,2.5297941 7.7587997,2.3579507 V 1.2762195 c 0,-0.123375 -0.085921,-0.2313276 -0.2070934,-0.2577654 -0.8085441,-0.18065557 -1.6369173,-0.17184337 -2.4058062,0 C 5.0247287,1.0448904 4.9388074,1.1528445 4.9388074,1.2762195 V 2.3601544 C 4.4497143,2.5342007 3.9958722,2.7963718 3.5993107,3.1334491 L 2.662985,2.5914812 C 2.5550317,2.5297941 2.4206414,2.5496194 2.336923,2.6421501 1.7927523,3.2303833 1.3763631,3.939788 1.1318167,4.7263015 1.0943622,4.8452693 1.1450387,4.973051 1.2529881,5.0347381 l 0.9385293,0.541967 c -0.094734,0.5111236 -0.094734,1.035466 0,1.5465902 L 1.2529881,7.6652624 C 1.1450356,7.7269494 1.0965666,7.8547304 1.1318167,7.9736993 1.3763631,8.7580097 1.7927523,9.467413 2.336923,10.05785 c 0.083718,0.09033 0.2203116,0.112359 0.326062,0.05067 L 3.6015137,9.5665508 c 0.3943585,0.3392805 0.8482006,0.6014512 1.3394966,0.7732952 v 1.083935 c 0,0.123375 0.085921,0.231327 0.2070935,0.257765 0.808544,0.180655 1.6369172,0.171844 2.4058061,0 0.1211715,-0.02643 0.2070927,-0.13439 0.2070927,-0.257765 V 10.339846 C 8.2500957,10.1658 8.7039377,9.9036293 9.1004995,9.5665508 l 0.9385295,0.5419682 c 0.107952,0.06169 0.242343,0.04186 0.326062,-0.05067 0.544169,-0.5882328 0.96056,-1.2976381 1.205105,-2.0841507 0.03305,-0.1211717 -0.01543,-0.2489526 -0.123374,-0.3106388 z M 6.3488035,8.1102931 c -0.9715758,0 -1.7624959,-0.7909203 -1.7624959,-1.7624961 0,-0.9715759 0.7909201,-1.7624952 1.7624959,-1.7624952 0.9715759,0 1.7624953,0.7909193 1.7624953,1.7624952 0,0.9715758 -0.7909194,1.7624961 -1.7624953,1.7624961 z"
       id="path2050"
       style="font-size:5.64444px;line-height:1.25;font-family:sans-serif;white-space:pre;shape-inside:url(#rect1406);display:inline;stroke-width:0.0220312" />
    <text
       xml:space="preserve"
       id="text2063"
       style="font-style:normal;font-variant:normal;font-weight:bold;font-stretch:normal;font-size:11.2889px;line-height:1.25;font-family:Calibri;-inkscape-font-specification:'Calibri Bold';white-space:pre;shape-inside:url(#rect2065);fill:#ffffff;stroke:#b3b3b3;stroke-width:0.264583;stroke-miterlimit:4;stroke-dasharray:none;"
       transform="translate(-0.39771009,-1.5493119)"><tspan
         x="1.5878906"
         y="11.465678"><tspan
           style="font-style:normal;font-variant:normal;font-weight:bold;font-stretch:normal;font-size:11.2889px;font-family:Calibri;-inkscape-font-specification:'Calibri Bold';fill:#ffffff;stroke:#b3b3b3;stroke-width:0.264583;stroke-miterlimit:4;stroke-dasharray:none">W</tspan></tspan></text>
  </g>
</svg>
